<?xml version="1.0" standalone="no"?>
<!DOCTYPE svg PUBLIC "-//W3C//DTD SVG 20010904//EN"
 "http://www.w3.org/TR/2001/REC-SVG-20010904/DTD/svg10.dtd">
<svg version="1.0" xmlns="http://www.w3.org/2000/svg"
 width="current" height="current" viewBox="0 0 140.000000 173.000000"
 preserveAspectRatio="xMidYMid meet">

<g transform="translate(0.000000,173.000000) scale(0.100000,-0.100000)"
fill="current" stroke="none">
<path d="M682 1704 c23 -26 439 -649 466 -701 25 -45 32 -109 18 -161 -14 -56
-176 -316 -206 -332 -21 -11 -110 -13 -135 -4 -21 9 -255 359 -255 382 0 29
30 62 56 62 13 0 24 3 24 8 0 10 -67 111 -93 140 -24 26 -58 29 -79 5 -31 -36
-98 -157 -104 -188 -3 -18 -1 -49 5 -71 11 -42 293 -476 330 -509 20 -18 40
-20 170 -23 124 -2 151 0 181 15 26 14 65 62 158 198 159 232 177 269 176 360
0 39 -7 86 -16 106 -8 19 -113 185 -233 367 -162 248 -225 337 -249 349 -21
12 -64 18 -136 21 l-105 4 27 -28z"/>
<path d="M488 1688 c-80 -108 -453 -657 -464 -683 -24 -58 -27 -128 -10 -189
21 -71 267 -451 311 -481 25 -16 50 -20 140 -22 61 -1 104 0 97 3 -16 7 -299
435 -319 483 -18 42 -19 122 -2 164 7 18 71 119 142 226 106 159 131 191 141
180 29 -32 296 -451 302 -475 8 -33 -20 -64 -57 -64 l-29 0 52 -81 c78 -123
106 -123 179 -1 55 91 64 125 49 184 -7 26 -102 180 -248 403 -129 198 -241
366 -247 373 -10 11 -17 8 -37 -20z"/>
<path d="M332 194 c-36 -28 -34 -47 4 -38 24 6 24 6 24 -70 0 -70 2 -76 20
-76 20 0 21 5 18 102 -3 117 -11 126 -66 82z"/>
<path d="M521 194 c-26 -34 -27 -68 -1 -94 23 -23 42 -25 72 -9 18 10 19 8 13
-13 -9 -31 -35 -50 -62 -45 -32 6 -38 -21 -7 -29 33 -9 79 12 93 42 19 43 14
131 -9 154 -29 29 -74 26 -99 -6z m77 -42 c2 -22 -2 -34 -12 -38 -34 -13 -61
37 -34 64 21 21 43 9 46 -26z"/>
<path d="M740 205 c0 -11 12 -15 45 -15 25 0 45 -3 45 -6 0 -3 -16 -39 -35
-81 -41 -88 -41 -93 -16 -93 14 0 28 21 55 84 52 121 51 126 -29 126 -51 0
-65 -3 -65 -15z"/>
<path d="M967 213 c-17 -16 -4 -28 30 -28 32 0 39 -4 41 -23 3 -18 -2 -23 -27
-28 -40 -8 -40 -30 -1 -37 21 -5 30 -12 30 -26 0 -28 -26 -44 -61 -37 -25 5
-30 3 -27 -12 3 -13 14 -17 50 -16 25 0 53 6 62 13 21 17 21 77 0 89 -14 8
-14 10 0 21 20 17 20 55 0 75 -15 16 -84 22 -97 9z"/>
</g>
</svg>
