<svg width="current" height="current" xmlns="http://www.w3.org/2000/svg" viewBox="0 0 729.92 1456.14"><defs><style>.cls-1{fill:#d7e2f1;}.cls-2{fill:#f2888a;}.cls-3{fill:#4c80ba;}</style></defs><g id="레이어_2" data-name="레이어 2"><g id="_迹_1" data-name="卵迹_1"><g id="thigh_muscles" data-name="thigh muscles"><path class="cls-1" d="M308.12,992.64a110,110,0,0,1-4.36-29.46c-3.28,15.82-10.37,32.19-26.19,38.73-3.27-15.27-7.64-30-6.55-45.82-3.82,14.18-12.55,26.73-19.09,39.82A183.46,183.46,0,0,1,241,967c-5.63,13.41-7.82,28.53-13.93,41.83.17,1,.32,1.91.42,2.56.44,4,.52,13.21-4.68,28.81-7.09,21.27-19.09,52.37-20.19,89.47s13.1,118.93,15.28,139.66,4.91,39.83,2.73,47.46-3.92,9.82-5.51,18,5.41,11.45,0,20.18-16.31,34.37-22.86,43.65-23.46,25.09-25.1,33.28-3.27,13.09,6.55,16.36S199.37,1445,201,1445s-8.73,8.18,1.09,9.27,15.27,3.28,21.82-3.27,13.09,0,20.19-13.09,2.72-14.19,10.36-26.19,19.64-11.46,24.55-25.64-6-39.83-6-39.83,4.91-3.27,4.91-8.73-3.82-13.63-4.36-25.64c-.05-1.09-.11-2.29-.16-3.59l.85-42.19,8.5-36.32c8.8-32,21.9-62.79,21.9-88.11,0-27.82-3-54-2.6-65.47s10.24-22.91,11.33-37.09,1.27-30,1.27-30,.09-.9.25-2.53a14.58,14.58,0,0,1-1.33-3C311.94,999.18,309.21,996.46,308.12,992.64Z"/><path class="cls-2" d="M246.14,656.35c-3.38,11.4-26.86,91.15-30.4,122.53-3.82,33.82-11.46,85.65-2.73,141.84,7,45.11,12.27,77.21,14.08,88.11,6.11-13.3,8.3-28.42,13.93-41.83a183.46,183.46,0,0,0,10.91,28.91c6.54-13.09,15.27-25.64,19.09-39.82-1.09,15.82,3.28,30.55,6.55,45.82,15.82-6.54,22.91-22.91,26.19-38.73a110,110,0,0,0,4.36,29.46c1.09,3.82,3.82,6.54,5.46,10.91a14.58,14.58,0,0,0,1.33,3c.69-6.86,2.81-26.67,6.09-47.24,3.33-10.28,10.9-33.4,17.21-51,8.37-23.27,13.66-41.85,15.28-64.37s4.92-58.46,5.9-69q-.52-.56-1.08-1.11C319.87,733.91,281.9,696.76,246.14,656.35Zm-4.25,312.41h0Z"/><path class="cls-1" d="M478.33,995.91c-7.09-12.55-14.18-25.09-19.09-38.73a136.68,136.68,0,0,1-6,44.73c-17.46-7.09-24-25.64-28.37-42.55,0,9.82,0,19.64-1.64,30-.91,6.1-3.87,10.66-7.15,15,.31,3,.47,4.72.47,4.72s.18,15.82,1.27,30,10.91,25.64,11.33,37.09-2.6,37.65-2.6,65.47c0,25.32,13.1,56.06,21.9,88.11l7.81,39.32,1.54,39.19c-.05,1.3-.1,2.5-.15,3.59-.55,12-4.37,20.19-4.37,25.64s4.91,8.73,4.91,8.73-10.91,25.64-6,39.83,16.91,13.64,24.55,25.64,3.27,13.09,10.37,26.19,13.63,6.54,20.18,13.09,12,4.36,21.82,3.27-.54-9.27,1.09-9.27,17.46,6.55,27.28,3.27,8.19-8.18,6.55-16.36-18.55-24-25.1-33.28-17.45-34.92-22.86-43.65,1.59-12,0-20.18-3.32-10.37-5.51-18,.55-26.73,2.73-47.46,16.37-102.56,15.28-139.66-13.1-68.2-20.19-89.47c-5.2-15.6-5.12-24.84-4.68-28.81.17-1,.42-2.55.75-4.55-7.89-11.81-12.6-26.57-15.21-39.84C486,976.82,482.7,986.64,478.33,995.91Zm11-27.16h0Z"/><path class="cls-2" d="M452.69,693.13c-27.19,28.21-55.34,53.53-80.82,82.31,1,11.09,4.26,46.3,5.85,68.54,1.62,22.52,6.91,41.1,15.28,64.37,6.31,17.58,13.88,40.7,17.21,51,3,18.69,5,36.76,5.87,45,3.28-4.36,6.24-8.92,7.15-15,1.64-10.36,1.64-20.18,1.64-30,4.36,16.91,10.91,35.46,28.37,42.55a136.68,136.68,0,0,0,6-44.73c4.91,13.64,12,26.18,19.09,38.73,4.37-9.27,7.64-19.09,10.91-28.91,2.61,13.27,7.32,28,15.21,39.84,2.06-12.49,7.13-43.49,13.75-86.12,8.73-56.19,1.09-108-2.73-141.84-3.51-31.16-26.68-110-30.33-122.28-1,.88-2,1.78-3,2.7C471.24,669.67,463.06,682.22,452.69,693.13Z"/><path class="cls-1" d="M721.56,768.23c-4.52-7.1-5.82-10.77-8.77-18s-11.6-16.26-16.24-23.47-9.95-15.78-9.29-15.91h0c3.15-.7,4.2-2.18,4.2-2.18s2.51,3.48,7.44,9.61,8.36,3.21,16.58,5.17,12.74-2.36,10.69-5.47-9.85-5.13-14.63-10-8.21-12.47-13-17.36-27.25-12.12-30.95-15-5.22-4-7.34-4.19l-.09,0c-3-8.93-14.73-43.69-21-63.86-7.27-23.28-10.91-50.19-23.27-74.92s-25.6-32.73-25.6-32.73l-2.09.26c5.52-31,2.55-54.86-1.77-68.44-5.73-18-18.41-33.32-18.41-33.32h0c2.77,1,4.4,1.63,4.4,1.63s3.28-10.63,4.1-28.64-13.5-54.19-22.92-69.55c-15.54-25.37-70.26-31.79-70.26-31.79l-72.73-54.21-.12-3c.32-11.13.05-24.72-1.38-34.48H409a129.87,129.87,0,0,0,9.19-11.69c4.17-6,7-19.35,8.67-35.38.21-1.75,4.34,3.23,5.65.6,2.66-5.35,3.54-9.82,4.74-13.89,5.5-18.61,3.24-21.55,1.36-24-2.54-3.34-10.13,1.87-10.13,1.87-.07-25.43-2.65-49.78-7.57-58.86-10.63-19.65-36.27-33.8-55.09-33.8h-.48c-18.82,0-44.46,14.15-55.1,33.8-5.2,9.6-6.69,31.35-6.46,58.32,0,2.83-6.53-3.28-9.62-.66-4.56,3.86.6,20.47,1.87,23.29,1.59,3.52,2.39,19,9.76,14.7,1.21,17.29,2.76,27.68,7.18,34a128,128,0,0,0,9.18,11.69h0c-1.44,9.76-1.71,23.35-1.39,34.48l-.12,3L247.9,270.07s-54.71,6.42-70.26,31.79c-9.42,15.36-23.73,51.55-22.91,69.55s4.09,28.64,4.09,28.64,1.64-.59,4.41-1.63h0s-12.68,15.31-18.4,33.32c-4.33,13.58-7.3,37.41-1.78,68.44v0s-15.31,7.78-27.67,32.51-16,51.64-23.28,74.92c-6.3,20.17-18,54.93-21,63.86l-.09,0c-2.12.16-3.63,1.27-7.33,4.19s-26.17,10.15-31,15-8.2,12.47-13,17.36S7.1,714.88,5,718s2.48,7.43,10.69,5.47,11.65,1,16.58-5.17,7.44-9.61,7.44-9.61,1.06,1.48,4.21,2.18h0c.66.13-4.65,8.7-9.29,15.91S21.38,743,18.43,750.25s-4.26,10.88-8.78,18c-4,6.35-8.69,15.32-5.26,18.24s7.07,1.17,12.56-6.15,11.89-18.75,15.63-25.45,12.67-18.23,12.67-18.23-3,15.6-6.82,20.61-6.36,16-9.69,22.79-10.37,13.05-8,17.53S30.1,801.2,33.7,797s10.42-15.56,14.3-23.5,6.13-12.71,9-19.5,5.28-9,5.28-9l2.6,2s-2.48,8.26-3.47,11.89-4.16,13-6,19.28-1.93,11.53-3.91,15.59S43.76,804,48.32,806.44s9.35-1.69,12-6.79,3.43-8.36,5.86-13.12A90.92,90.92,0,0,0,72.75,771c2.1-6.66,4.78-18.38,4.78-18.38l3,.93a22.75,22.75,0,0,1-1.08,11.05c-2.11,5.16-2.44,12.24-3.91,16.74s-1.77,8.63-2.83,11.07c-1.36,3.16-4.09,8.73-1.8,10,3.07,1.67,7.47-.93,11.19-8.7s8.54-18.4,9.67-24.8,1.16-9.75,2.61-14.06,5.08-8.17,9.27-18.31,9-21,9-25.63c0-3.21,1.17-12.55,1.63-18,1.27-1.53,3.86-5.2,6.46-12.21,3.64-9.82,13.54-23.85,29-42.88,14.46-17.77,26.81-27,36.09-51.32,10.91-28.55,16-58.56,16-58.56s2.36-20.73,8.36-33.82c5.08-11.08,13.28-20.61,19-40.46h0l7.66,28.44s.34,8.71,2.26,14.88c0,0,1.28,18.95,2.7,21.49s7.31,27.28,12.76,41.1c0,0-8.36,29.83-11.27,48.74S246.55,655,246.55,655s-.14.48-.41,1.37c35.76,40.41,73.73,77.56,112.17,117.52q.56.55,1.08,1.11c0-.25,0-.48.06-.7a9.16,9.16,0,0,0,6.16-.67,9.13,9.13,0,0,0,6.15.67l.11,1.16c25.48-28.78,53.63-54.1,80.82-82.31,10.37-10.91,18.55-23.46,29.46-33.83,1-.92,2-1.82,3-2.7-.31-1.06-.48-1.62-.48-1.62s6.08-27.77,3.17-46.68-11.27-48.74-11.27-48.74c5.45-13.82,11.35-38.55,12.77-41.1S492,497,492,497c1.92-6.17,2.27-14.88,2.27-14.88l7.65-28.44h0c5.71,19.85,13.91,29.38,19,40.46,6,13.09,8.37,33.82,8.37,33.82s5.09,30,16,58.56c9.28,24.28,21.64,33.55,36.09,51.32,15.47,19,25.37,33.06,29,42.88,2.6,7,5.19,10.68,6.47,12.21.46,5.42,1.63,14.76,1.63,18,0,4.67,4.83,15.48,9,25.63s7.83,14,9.27,18.31,1.47,7.66,2.61,14.06,6,17,9.67,24.8,8.12,10.37,11.19,8.7c2.29-1.25-.43-6.82-1.8-10-1.05-2.44-1.36-6.58-2.83-11.07s-1.8-11.58-3.91-16.74a22.89,22.89,0,0,1-1.08-11.05l3-.93s2.68,11.72,4.78,18.38A90.92,90.92,0,0,0,665,786.53c2.44,4.76,3.2,8,5.86,13.12s7.44,9.2,12,6.79-1.22-8.63-3.19-12.69-2-9.28-3.91-15.59-5-15.64-6-19.28S666.29,747,666.29,747l2.61-2s2.36,2.24,5.27,9,5.16,11.56,9,19.5,10.7,19.31,14.3,23.5,10.52,5,12.93.56-4.65-10.79-8-17.53-5.9-17.78-9.69-22.79S686,736.64,686,736.64s8.94,11.54,12.68,18.23,10.13,18.12,15.62,25.45,9.13,9.08,12.56,6.15S725.6,774.58,721.56,768.23Z"/><path class="cls-1" d="M570.62,525.94a5.06,5.06,0,0,1,2.1.71Z"/><path class="cls-3" d="M365.21,308.38a1.93,1.93,0,0,1-1.38-.59c-22.12-23.08-43.65-72.63-44.84-84.07-1.1-10.69-1.5-32.95.62-46.92a1.91,1.91,0,0,1,3.36-.92c.79,1,19.38,23.87,26,45.45,3.87,12.67,8.25,35.2,12.12,55.07,2.17,11.18,4.22,21.74,6,29.65a1.92,1.92,0,0,1-1,2.1A2,2,0,0,1,365.21,308.38Zm-42.4-126.47a239.57,239.57,0,0,0,0,41.42c.91,8.81,18.32,51.41,39,76.43-1.4-6.71-2.91-14.5-4.49-22.63-3.85-19.78-8.21-42.2-12-54.69C340.42,206.47,328.31,189.23,322.81,181.91Z"/><path class="cls-3" d="M247.26,270.71a1.91,1.91,0,0,1-1.14-3.44l72.73-54.21a1.91,1.91,0,1,1,2.28,3.06L248.4,270.33A1.86,1.86,0,0,1,247.26,270.71Z"/><path class="cls-3" d="M156.94,401.25l-.59-1.91c-.13-.44-3.35-11.08-4.17-29.11-.83-18.36,13.41-54.68,23.19-70.64,15.85-25.86,69.39-32.42,71.67-32.69l.16,0h.17a12.09,12.09,0,0,1,7.7,4.16c3.46,3.91,5,9.92,4.49,17.85-1.19,19.5-31.32,74.9-32.61,77.25l-.13.24-.19.19c-14.86,14.86-65.65,33.22-67.81,34Zm90.34-130.53c-3.66.47-54.24,7.35-68.65,30.86C169,317.33,155.22,353,156,370.05a138.67,138.67,0,0,0,3.49,26.22c9.55-3.55,51.35-19.55,64.25-32.2,2.22-4.08,30.92-57.38,32-75.4.41-6.79-.81-12-3.54-15.08A8.49,8.49,0,0,0,247.28,270.72Zm-22,94.51Z"/><path class="cls-3" d="M148.23,534.84l-.81-3c-15.53-57.6-8.71-90.51-5.06-102,5.77-18.15,18.22-33.32,18.75-34l.31-.38.47-.18c30.92-12.08,51.27-23.54,51.47-23.65l2.94-1.66-.09,3.37c0,.52-1.47,52.66-10.19,82.83-7.2,24.9-25.35,49.94-55.49,76.55Zm15.52-136.1c-1.94,2.44-12.7,16.41-17.75,32.3-2.72,8.55-10.32,40.49,4.32,96.84,28.2-25.34,45.23-49.14,52-72.68,7.32-25.32,9.45-66.61,9.92-78.55A471.82,471.82,0,0,1,163.75,398.74Z"/><path class="cls-3" d="M298.34,432.34c-15.44,0-37.92-1.54-45.26-8.31-9.84-9.08-30.23-44.88-33.21-52.34l-.36-.91L220,370c17.64-27.62,32.33-65.76,35.75-81.57l.26-1.24,1.25-.23c6.12-1.15,39.88-1.82,56.44-1.12,20.64.87,41.4,2.74,48.66,14.93a15.45,15.45,0,0,0,2.29,3c2.1,2.2,2.17,3.11,2.43,14.43.35,15.75.56,61.9.14,81.37v.69l-.45.52c-6.9,8-43.84,29.8-54.37,31C310.06,432.07,304.82,432.34,298.34,432.34ZM223.8,371.16c3.89,8.73,22.92,41.8,31.87,50.06C264.06,429,300.8,429.3,312,428c8.54-1,43.65-21,51.47-29.23.4-19.82.19-65-.16-80.49-.25-10.7-.37-10.84-1.38-11.89a18.72,18.72,0,0,1-2.8-3.72c-6.81-11.44-31.05-12.46-45.54-13.08-16.19-.68-46.4,0-54.35.89C255.25,307.43,241.2,343.61,223.8,371.16Z"/><path class="cls-3" d="M82.86,680.75l-15.53-7.47.54-1.6c.15-.42,14.56-43,21.75-65.95C92,598.13,94,590.25,96,581.91c4.22-17,8.59-34.6,17-51.39,12.5-25,27.87-33,28.52-33.35l2.13-1.09.58,2.33c6.63,26.6,6.63,33.11,0,53.56-4.61,14.14-8.89,22.61-14.82,34.34-1.78,3.51-3.62,7.15-5.69,11.37-9,18.34-39.69,80.74-40,81.37ZM72,671.31l9.07,4.36c5-10.17,31-63,39.18-79.67,2.08-4.24,4-8,5.7-11.42,5.85-11.57,10.08-19.93,14.59-33.79,6.22-19.09,6.42-25.11.59-48.92-4.51,3.05-15.5,11.88-24.74,30.36-8.2,16.41-12.52,33.79-16.69,50.6-2.09,8.4-4.06,16.33-6.47,24C86.86,627.36,74.73,663.31,72,671.31Z"/><path class="cls-3" d="M92.49,685.08l-13.09-6,.87-1.76c.43-.88,43.15-87.71,52.49-106.58l.15-.25c8.74-12.52,31.53-24.36,48.17-33,6-3.15,11.28-5.87,14-7.73l6.65-4.51-3.91,7c-9.8,17.63-26.53,39.37-33.26,47.9C153.85,593.81,94,682.84,93.39,683.74Zm-7.92-7.79,6.55,3C99,668.6,151.36,590.8,161.59,577.84c5.9-7.47,19.51-25.14,29.27-41.14-2.33,1.26-5,2.66-8,4.21-15.32,8-38.45,20-46.72,31.7C127.41,590.22,90.7,664.81,84.57,677.29Z"/><path class="cls-3" d="M113.24,694.76,89,683.46l1.25-1.85,33.47-49.47c.69-1,43.07-60.77,44.87-63.31l36-50L203.16,527c0,.3-5.25,30.52-16.1,58.91-7.09,18.55-15.87,28.41-26,39.83-3.33,3.74-6.78,7.62-10.36,12-16.54,20.34-25.4,33.4-28.71,42.34-3.75,10.14-7.62,13.7-7.78,13.85Zm-18.6-12.87,17.78,8.28c1.2-1.5,3.57-5,6-11.43,3.46-9.35,12.51-22.74,29.32-43.42,3.64-4.47,7.12-8.37,10.48-12.15,9.91-11.14,18.47-20.76,25.31-38.65,7.25-19,11.94-38.76,14.24-49.68l-26.06,36.21c-15.25,21.49-44.24,62.4-44.82,63.24Z"/><path class="cls-3" d="M135.75,655.61h-.24a1.91,1.91,0,0,1-1.65-2.13c.1-.84,2.77-20.85,18.6-45s36.94-40.59,37.15-40.75a1.91,1.91,0,1,1,2.34,3c-.21.16-20.91,16.4-36.3,39.84s-18,43.13-18,43.33A1.92,1.92,0,0,1,135.75,655.61Z"/><path class="cls-3" d="M203.18,526.86l-3.81-.25c0-2.7,1.35-66.26,6.22-85.11,4.76-18.45,6.75-66.83,6.77-67.32l0-1.18,10.1-4.49,15.65,29.75,0,.43c0,.55.61,13.85-4.83,42.12-4,20.94-10.85,32.8-16.34,42.33-2.07,3.59-4,7-5.62,10.48C205.58,506.28,203.2,526.66,203.18,526.86Zm12.94-151.34c-.34,7.77-2.34,49.51-6.84,66.93-2.91,11.27-4.53,40-5.36,60.81a77.66,77.66,0,0,1,4-11.23c1.67-3.66,3.67-7.13,5.78-10.8,5.62-9.77,12-20.83,15.9-41.14,4.82-25.07,4.82-38.39,4.78-40.81l-13.58-25.83Z"/><path class="cls-3" d="M154.9,528.2a1.91,1.91,0,0,1-1.3-3.3c1-.93,2.72-1.19,8-1.9,9.53-1.25,27.27-3.6,38.4-13.08a1.91,1.91,0,0,1,2.48,2.91c-12,10.21-30.46,12.65-40.38,14a43.26,43.26,0,0,0-6.07,1A1.92,1.92,0,0,1,154.9,528.2Zm1.31-.51Z"/><path class="cls-3" d="M49.84,810a7.9,7.9,0,0,1-3.68-.92A4.89,4.89,0,0,1,43.59,806c-.77-2.89,1.24-6.09,3.19-9.19.68-1.08,1.32-2.11,1.74-3a30.18,30.18,0,0,0,2-7.58,74.4,74.4,0,0,1,1.75-7.71c.92-3.1,2.16-7,3.26-10.4,1.16-3.61,2.26-7,2.76-8.84.76-2.8,2.37-8.22,3.1-10.68l-.09-.07a38.11,38.11,0,0,0-3.83,7.13c-3,7-5.32,11.92-9.08,19.59s-10.64,19.33-14.56,23.9a12,12,0,0,1-10,4.17,7.56,7.56,0,0,1-6.05-4c-2.16-4,.85-8.41,4.05-13a52.67,52.67,0,0,0,3.89-6.24,96.49,96.49,0,0,0,3.7-9.37c1.83-5.16,3.74-10.5,6.18-13.72,1.58-2.09,3.12-6.56,4.32-10.87-2.52,3.51-5.31,7.57-7,10.57C29.44,763,22.88,774.8,17.2,782.37c-4,5.36-7.15,7.9-10.17,8.23a6.65,6.65,0,0,1-5.15-1.76c-3.62-3.09-2-9.87,4.89-20.72a80.15,80.15,0,0,0,7.7-15.45c.29-.71.6-1.45.92-2.24,1.94-4.73,6.07-10,10.06-15.17,2.38-3.07,4.63-6,6.33-8.61,4.64-7.21,7.24-11.53,8.38-13.65a11,11,0,0,1-1.33-.66c-1.21,1.59-3.3,4.33-6.31,8.07-3.78,4.7-7.11,4.85-11,5a32.75,32.75,0,0,0-6.65.81c-6.67,1.59-10.95-.56-12.58-2.89a4.72,4.72,0,0,1-.14-5.49C3.43,716,6,714.6,8.86,713s5.91-3.16,8.18-5.49a56.53,56.53,0,0,0,6.26-8.39,60.37,60.37,0,0,1,6.72-9C33.13,687,42.18,683.3,50.17,680c4.76-2,9.69-4,11-5,3.86-3,5.68-4.38,8.37-4.6a2,2,0,0,1,1,.19c15.15,7.32,39.8,19.07,42.61,20a2,2,0,0,1,1,.44c1.1.89,1.1,1.5.06,10.87-.41,3.7-.87,7.9-.87,9.87,0,4.41-3.6,13.05-7.43,22.18l-1.74,4.17a91.41,91.41,0,0,1-6.35,12.55A32.68,32.68,0,0,0,95,756.31a41.1,41.1,0,0,0-1.64,8c-.24,1.65-.5,3.53-.9,5.78-.92,5.19-4,13.22-9.83,25.29-2.61,5.45-5.71,8.89-9,9.94a6,6,0,0,1-4.85-.39c-3.63-2-1.19-7.5.59-11.54.13-.31.26-.6.38-.87a26.25,26.25,0,0,0,1.15-4.42,56.79,56.79,0,0,1,1.62-6.49,52.63,52.63,0,0,0,1.42-6.6,50.59,50.59,0,0,1,2.53-10.27,19.67,19.67,0,0,0,1.13-8.52c-.89,3.77-2.72,11.29-4.28,16.22a92,92,0,0,1-6.69,15.86c-1.13,2.21-1.88,4.07-2.67,6a74.65,74.65,0,0,1-3.19,7.09c-2.17,4.18-5.27,7.14-8.48,8.14A7.94,7.94,0,0,1,49.84,810ZM61,744a1.93,1.93,0,0,1,1.17.4l2.61,2a1.93,1.93,0,0,1,.66,2.06c0,.08-2.49,8.28-3.46,11.85-.52,1.9-1.58,5.19-2.8,9-1.1,3.41-2.34,7.26-3.24,10.31a73.62,73.62,0,0,0-1.66,7.33A33.63,33.63,0,0,1,52,795.49,38.13,38.13,0,0,1,50,798.82c-1.3,2.06-3.08,4.89-2.74,6.17,0,.11.1.37.66.67a4,4,0,0,0,3.19.28c2.19-.68,4.58-3.08,6.24-6.26a71,71,0,0,0,3-6.76c.79-2,1.61-4,2.82-6.35a89.24,89.24,0,0,0,6.44-15.27c2-6.51,4.71-18.11,4.73-18.23a1.91,1.91,0,0,1,2.43-1.4l3,.94a1.93,1.93,0,0,1,1.32,1.49A24.71,24.71,0,0,1,80,766.2a48.37,48.37,0,0,0-2.3,9.48,53.41,53.41,0,0,1-1.55,7.13,54.17,54.17,0,0,0-1.51,6.07,27.85,27.85,0,0,1-1.39,5.17l-.39.89c-.67,1.53-2.43,5.53-2.13,6.71a2.28,2.28,0,0,0,1.73,0c1-.33,3.75-1.77,6.71-8,5.55-11.59,8.66-19.54,9.51-24.3.39-2.19.65-4,.87-5.66a45.35,45.35,0,0,1,1.81-8.68,34.72,34.72,0,0,1,3.2-6.36,89.82,89.82,0,0,0,6.12-12.08c.57-1.38,1.16-2.78,1.74-4.18,3.51-8.39,7.14-17.06,7.13-20.71,0-2.18.46-6.3.9-10.29.29-2.58.66-5.93.73-7.58-2.43-.93-7.84-3.42-21-9.68-9.25-4.4-18.54-8.87-20.79-10-1.34.27-2.68,1.25-5.84,3.73-1.64,1.29-5.59,3-11.9,5.55-7.26,3-16.31,6.71-18.86,9.33a56.57,56.57,0,0,0-6.27,8.39,59.52,59.52,0,0,1-6.72,9c-2.68,2.74-6.09,4.57-9.1,6.19-2.36,1.26-4.58,2.45-5.3,3.55a1,1,0,0,0,.07,1.2c1,1.41,4.09,2.43,8.58,1.36a37.21,37.21,0,0,1,7.36-.91c3.64-.16,5.47-.24,8.17-3.6,4.83-6,7.36-9.5,7.38-9.53a1.92,1.92,0,0,1,1.59-.85,1.81,1.81,0,0,1,1.5.83c.28.3,3.4,3.3,13.35.7,12.44-3.26,24.54-10.07,28.15-15.84a1.91,1.91,0,0,1,3.24,2c-4.68,7.5-18.85,14.48-30.42,17.51A28.91,28.91,0,0,1,44,713.92c-1,2.19-3.52,6.32-9,14.8-1.79,2.79-4.09,5.75-6.52,8.88-3.84,4.93-7.81,10-9.55,14.28-.32.79-.62,1.53-.91,2.23a84.76,84.76,0,0,1-8,16.06C3.29,780.69,3.3,785,4.36,785.93a2.84,2.84,0,0,0,2.25.88c1.81-.21,4.34-2.47,7.54-6.73,5.52-7.36,12-19,15.49-25.23,3.76-6.74,12.46-18,12.82-18.47a1.91,1.91,0,0,1,3.39,1.53c-.13.66-3.15,16.1-7.17,21.4-2.08,2.76-3.88,7.81-5.63,12.7a97.29,97.29,0,0,1-3.87,9.78A54.11,54.11,0,0,1,25,788.51c-2.51,3.64-4.89,7.09-3.82,9.07a3.79,3.79,0,0,0,3.09,1.95,8.14,8.14,0,0,0,6.7-2.85c3.32-3.87,10-14.88,14-23.1,3.73-7.61,6-12.46,9-19.42s5.45-9.41,5.72-9.67A1.94,1.94,0,0,1,61,744Zm51.19-49.7a1.8,1.8,0,0,0,.69.13A3.6,3.6,0,0,1,112.23,694.27Z"/><path class="cls-3" d="M347.75,540.56H314.39A19.39,19.39,0,0,1,295,521.19V492.82a19.38,19.38,0,0,1,19.37-19.36h33.36a19.38,19.38,0,0,1,19.37,19.36v28.37A19.39,19.39,0,0,1,347.75,540.56Zm-33.36-63.29a15.57,15.57,0,0,0-15.55,15.55v28.37a15.57,15.57,0,0,0,15.55,15.55h33.36a15.57,15.57,0,0,0,15.55-15.55V492.82a15.57,15.57,0,0,0-15.55-15.55Z"/><path class="cls-3" d="M347.75,604H314.39A19.39,19.39,0,0,1,295,584.66V556.11a19.39,19.39,0,0,1,19.37-19.37h33.36a19.39,19.39,0,0,1,19.37,19.37v28.55A19.39,19.39,0,0,1,347.75,604Zm-33.36-63.46a15.57,15.57,0,0,0-15.55,15.55v28.55a15.56,15.56,0,0,0,15.55,15.54h33.36a15.56,15.56,0,0,0,15.55-15.54V556.11a15.57,15.57,0,0,0-15.55-15.55Z"/><path class="cls-3" d="M367.09,742.05H348l-.47-.31c-8-5.21-23-41.9-38-80.77-1.85-4.8-3.32-8.6-4.17-10.66C300.22,637.85,298,620.72,298,620l0-.23c0-11.7,6.62-19.56,16.46-19.56h33.36a19.39,19.39,0,0,1,19.37,19.37v28.55c0,2.16,0,6.83,0,13,.08,21.49.24,61.49,0,79Zm-17.9-3.82h14.13c.25-18.32.1-56.32,0-77.06,0-6.21,0-10.89,0-13V619.57A15.57,15.57,0,0,0,347.75,604H314.39c-9.28,0-12.6,8.38-12.64,15.61.2,1.54,2.41,17.76,7.13,29.22.87,2.11,2.34,5.92,4.2,10.75C321.45,681.27,340.84,731.54,349.19,738.23Z"/><path class="cls-3" d="M347.75,477.27H314.39c-11.95,0-19.37-7.42-19.37-19.36,0-13.05,13.43-25.62,26-33l46.26-27.05,0,3.36c-.14,18.26-.14,23.15-.14,32v24.69A19.38,19.38,0,0,1,347.75,477.27Zm15.66-72.75L323,428.17c-11.66,6.87-24.12,18.3-24.12,29.74,0,9.73,5.81,15.55,15.55,15.55h33.36a15.57,15.57,0,0,0,15.55-15.55V433.22C363.3,424.9,363.3,420.08,363.41,404.52Z"/><path class="cls-3" d="M237.11,491.21l-10.44-38.79.1-.45c0-.18,4-18.21,5.25-26s2.32-27.07,2.33-27.26l.34-6.25,11.52,19.3-.14.71c0,.12-2.18,11.33-3.25,23.09s-4.6,45.16-4.64,45.49Zm-6.51-38.88,4.86,18.08c1.14-10.87,2.86-27.54,3.56-35.22.93-10.24,2.67-20.06,3.17-22.75l-4.4-7.37c-.42,6.45-1.15,16.29-2,21.49C234.6,433.87,231.23,449.41,230.6,452.33Z"/><path class="cls-3" d="M261.29,461.06c-2.62,0-5.24-1-7.9-3.62-5.28-5.28-13.54-23.8-13.89-24.58l-.22-.51,3.62-24.59,2.72,3.05c4.07,4.58,10.75,11.41,12.83,12.26,3.31,1.34,7.07,2.43,7.1,2.45l1.29.37.09,1.33c0,.21,1.38,20.42,5.49,27.95l1,1.78-1.83.87C268.06,459.46,264.67,461.06,261.29,461.06Zm-18.07-29.25c1.36,3,8.53,18.59,12.87,22.93,3.63,3.62,6.69,2.89,12.11.43-3.28-7.8-4.63-22-5-26.37-1.44-.46-3.89-1.26-6.19-2.2-2.68-1.08-8.11-6.6-11.52-10.26Z"/><path class="cls-3" d="M258.6,486a24.75,24.75,0,0,1-12.52-3.52c-4.32-2.75-8.28-18.18-9.39-22.84l-.07-.32,2.73-27.38a1.91,1.91,0,1,1,3.8.38L240.48,459c2.12,8.77,5.61,18.9,7.65,20.2,2.91,1.85,9,3.88,14.35,2.43-4.27-7.95-9.33-24.23-9.56-25a1.91,1.91,0,1,1,3.65-1.12c.06.19,6.15,19.81,10.31,26.05l1.23,1.84-2,.95A17.53,17.53,0,0,1,258.6,486Z"/><path class="cls-3" d="M263.48,509.57l-4.38-.69c-7.09-1.12-14.41-2.27-19.15-6.65s-5.5-19.62-5.57-21.33v-.14l1.8-17.19a1.91,1.91,0,0,1,3.8.4l-1.77,16.91c.25,5.91,1.64,16,4.34,18.54,3.09,2.85,8,4.11,13.11,5a78.55,78.55,0,0,1-7.76-20.36c-.11-.45-.24-1-.31-1.2a1.92,1.92,0,0,1,2.45-2.67c.94.42,1.1,1.06,1.57,3,.91,3.71,3.33,13.57,9.46,22.77Zm-15-25.85Zm0,0Zm0,0h0Zm0,0Zm0,0Zm0,0Zm0,0h0Zm0,0Zm0,0Z"/><path class="cls-3" d="M261.4,527.09l-3.84-.36c-7.84-.74-16.1-5.24-18-8.61-1.51-2.71-2.63-17.75-2.93-22.29a1.91,1.91,0,0,1,1.77-2,1.93,1.93,0,0,1,2,1.78c.59,8.81,1.7,19.23,2.46,20.7s5.46,4.55,11.07,6a132.26,132.26,0,0,1-7.9-17.05,1.91,1.91,0,0,1,3.58-1.32,127,127,0,0,0,9.69,20Z"/><path class="cls-3" d="M305.28,479.84a1.91,1.91,0,0,1-1.2-.42A184.63,184.63,0,0,0,270,457.82a1.91,1.91,0,0,1,1.59-3.47,189.26,189.26,0,0,1,34.94,22.1,1.91,1.91,0,0,1-1.2,3.39Z"/><path class="cls-3" d="M296.93,514.74a1.9,1.9,0,0,1-1.56-.82c-14.22-20.25-28.53-30.6-30.45-31.23a1.91,1.91,0,0,1,.68-3.75c3.25.54,18.8,12.7,32.89,32.79a1.91,1.91,0,0,1-.46,2.66A2,2,0,0,1,296.93,514.74Zm-32-32h0Z"/><path class="cls-3" d="M299.84,548.37a1.92,1.92,0,0,1-1.48-.71c-17.13-21.21-39.83-39-40.06-39.15a1.91,1.91,0,1,1,2.34-3c.23.18,23.29,18.21,40.69,39.76a1.91,1.91,0,0,1-.29,2.68A1.88,1.88,0,0,1,299.84,548.37Z"/><path class="cls-3" d="M297.28,590a1.9,1.9,0,0,1-1.65-.94c-14-23.69-39.24-62.82-39.5-63.22a1.91,1.91,0,1,1,3.21-2.07c.25.4,25.54,39.59,39.58,63.35a1.9,1.9,0,0,1-1.64,2.88Z"/><path class="cls-3" d="M311.75,663.75a1.87,1.87,0,0,1-1-.3c-.42-.27-10.44-6.81-23.93-23.59-10.7-13.3-22.57-47.12-29.66-67.32-2-5.66-3.7-10.54-4.89-13.55-5.43-13.76-13.11-42-13.19-42.27a1.91,1.91,0,1,1,3.69-1c.07.28,7.7,28.31,13,41.87,1.21,3.07,2.86,7.76,4.94,13.69,7,20,18.74,53.39,29,66.19,13.07,16.23,22.93,22.71,23,22.77a1.91,1.91,0,0,1-1,3.51Z"/><path class="cls-3" d="M365.37,776.24h-.19a39.36,39.36,0,0,1-7.39-1.54c-2.52-.84-10-8.45-25.27-24.39-4.31-4.5-8.38-8.75-11.85-12.27-2.5-2.53-6.62-6.54-11.84-11.61-20.9-20.3-55.88-54.28-62.65-67.61-8.5-16.71-8.28-32.91-5.33-52.07,2.9-18.81,11.24-48.67,11.33-49a1.91,1.91,0,1,1,3.67,1c-.08.29-8.36,29.93-11.22,48.51-2.92,19-3.11,33.9,5,49.76,6.49,12.76,42.54,47.78,61.91,66.6,5.24,5.09,9.38,9.11,11.9,11.67,3.49,3.54,7.57,7.8,11.89,12.31,9.08,9.47,21.51,22.45,23.75,23.41a34.63,34.63,0,0,0,6.53,1.36,1.91,1.91,0,0,1-.19,3.81Z"/><path class="cls-3" d="M226.79,1021.16l-1.54-9.2c-.06-.36-6.14-36.66-14.77-92.22-8-51.3-2.44-98.3,1.59-132.62q.6-5.08,1.13-9.73c3.8-33.61,30.61-123.33,30.88-124.23a1.91,1.91,0,0,1,3.66,1.09c-.27.9-27,90.3-30.74,123.57-.35,3.1-.74,6.35-1.14,9.75-4,34.1-9.49,80.8-1.6,131.58,6.11,39.37,10.94,69.06,13.26,83.14,1.25-4.81,2.76-10.32,3.79-13.12l2.75-7.49c2.08-5.65,4.61-12.52,5.3-14.47a1.69,1.69,0,0,1,.12-.44,1.93,1.93,0,0,1,2.58-1.34c1.75.68,1.19,2.24.65,3.74l-1.25,3.46L237.65,983c-1,2.62-1.93,5.22-2.76,7.48-1.94,5.29-5.87,21.45-5.9,21.62Z"/><path class="cls-3" d="M252.15,999.09l-1.62-2.87c-8.86-15.75-18.29-49.58-25.87-92.82-6.66-38-10.39-75.14-9.28-92.46,2-31,16.11-64.09,27.63-86.43a376.68,376.68,0,0,1,24.73-41.45,1.91,1.91,0,1,1,3.11,2.22c-.48.67-48,67.85-51.66,125.9-2,31.68,13.94,141.87,33.12,180.23l.7-1.15c5.28-8.61,11.26-18.36,16.65-36.44a1.91,1.91,0,1,1,3.66,1.09c-5.53,18.56-11.92,29-17.05,37.35-.84,1.36-1.65,2.68-2.43,4Z"/><path class="cls-3" d="M315.25,1015.73l-3-7.17a171.64,171.64,0,0,1-8.1-25.06c-1.33-6-1.4-26.88-1.49-51-.09-22.68-.18-48.39-1.44-63.12-1.94-22.71-5.6-39.42-10.23-60.57-1.41-6.45-2.87-13.11-4.39-20.45-11.94-57.66-11.34-92.17-11.23-95.92a1.91,1.91,0,1,1,3.81.11c-.1,3.7-.69,37.8,11.16,95,1.51,7.32,3,14,4.38,20.41,4.48,20.45,8.34,38.11,10.3,61.07,1.27,14.88,1.37,40.67,1.45,63.43s.17,44.54,1.41,50.2a144.24,144.24,0,0,0,5,16.73c1.26-13.73,3.91-42,6.54-64.92,3.77-32.79,4.67-53.16,0-87.17a466.85,466.85,0,0,0-18.76-83.58c-1.73-5.59-3.36-10.88-4.83-16.19-6.5-23.47-9.89-43.95-9.92-44.15a1.91,1.91,0,1,1,3.76-.62c0,.2,3.4,20.49,9.84,43.75,1.46,5.26,3.08,10.52,4.8,16.09,5.89,19.06,13.22,42.8,18.89,84.18,4.72,34.42,3.81,55,0,88.13-3.6,31.26-7.24,72.64-7.27,73Z"/><path class="cls-3" d="M413.92,1015.73l-.67-7.74c0-.41-3.68-41.8-7.27-73-3.81-33.12-4.71-53.71,0-88.13,5.67-41.38,13-65.12,18.89-84.18,1.72-5.57,3.35-10.83,4.8-16.09,6.44-23.26,9.52-41.91,9.55-42.1a1.91,1.91,0,0,1,3.77.62c0,.19-3.14,19-9.64,42.5-1.47,5.31-3.1,10.6-4.83,16.19a466.16,466.16,0,0,0-18.75,83.58c-4.66,34-3.77,54.38,0,87.17,2.63,22.89,5.29,51.19,6.54,64.92a142.31,142.31,0,0,0,5-16.73c1.24-5.66,1.32-27.3,1.41-50.2s.18-48.55,1.45-63.43c2-23,5.83-40.62,10.31-61.07,1.4-6.43,2.86-13.09,4.38-20.41,8.74-42.22,11.84-82.58,11.94-91.6a1.94,1.94,0,0,1-.37-1.45c.15-1,.32-2.06,1.47-2.48a2,2,0,0,1,1.93.35c.77.66,1,.88.52,9.63-.33,5.86-.95,13.29-1.74,21-1.58,15.42-4.61,39.28-10,65.38-1.52,7.34-3,14-4.39,20.45-4.64,21.15-8.3,37.86-10.23,60.57-1.26,14.73-1.36,40.44-1.44,63.12-.09,24.12-.17,45-1.5,51a170.31,170.31,0,0,1-8.1,25.06Z"/><path class="cls-3" d="M306.49,778.3a1.54,1.54,0,0,1-.43,0,1.9,1.9,0,0,1-1.44-2.28,173.39,173.39,0,0,1,15.73-40.2,1.91,1.91,0,0,1,3.35,1.83,172.22,172.22,0,0,0-15.35,39.22A1.92,1.92,0,0,1,306.49,778.3Z"/><path class="cls-3" d="M318,967.47a2,2,0,0,1-.59-.09,1.9,1.9,0,0,1-1.23-2.4c.1-.33,10.66-33.32,18.94-56.36,8.17-22.72,13.55-41.33,15.17-63.87,1.89-26.38,6.14-71.6,6.19-72a1.91,1.91,0,1,1,3.8.35c0,.46-4.29,45.64-6.18,72-1.65,23-7.11,41.87-15.38,64.89s-18.8,55.9-18.91,56.23A1.9,1.9,0,0,1,318,967.47Z"/><path class="cls-3" d="M276.13,1004.73l-.69-1.61c-.16-.37-3.86-9.25-5.51-30.06-1.54-19.51,2.16-46.09,9.9-71.09,7-22.58,16.9-65.47,17-65.9a1.91,1.91,0,0,1,3.72.86c-.1.43-10,43.45-17.07,66.17-7.6,24.56-11.24,50.61-9.74,69.66,1.18,14.9,3.46,23.54,4.57,27a45.14,45.14,0,0,0,12.32-9.65c7.52-8,12.08-29.45,12.21-31.76a1.9,1.9,0,0,1,1.91-1.86h0a1.92,1.92,0,0,1,1.87,2c0,1.29-4.35,24.79-13.25,34.29-8.42,9-15.33,11.32-15.62,11.42Z"/><path class="cls-3" d="M212.77,1456.14a53.71,53.71,0,0,1-7.16-.68c-1.38-.19-2.81-.39-4.36-.56-1.12-.13-4.53-.51-5.66-3.12a5.54,5.54,0,0,1,.68-4.93c-6,1.78-16.32,4.45-23.78,2-10.87-3.62-9.58-9.91-8.09-17.2q.14-.66.27-1.35c1.17-5.82,8.68-14.37,16-22.63,3.72-4.23,7.23-8.22,9.46-11.38,3.64-5.15,8.85-15.89,13.45-25.36,3.59-7.38,7-14.35,9.35-18.19,2.68-4.32,1.84-6.89.78-10.14-.84-2.58-1.79-5.49-1-9.4a63.37,63.37,0,0,1,3.17-11.05c.75-2,1.52-4.14,2.37-7.11,1.72-6,.14-20.16-1.68-36.55-.36-3.32-.74-6.73-1.11-10.19-.57-5.42-1.95-15-3.71-27.06-4.93-34-12.38-85.36-11.57-112.86,1-33.4,10.73-62,17.85-82.84.85-2.5,1.67-4.9,2.43-7.18,6.3-18.9,4.67-28.28,4.28-30,0-.11,0-.19,0-.22a1.91,1.91,0,0,1,3.76-.69c.62,2.68,2.08,12.73-4.37,32.08-.76,2.29-1.58,4.69-2.44,7.2-7,20.64-16.68,48.9-17.65,81.72-.8,27.17,6.63,78.34,11.54,112.2,1.76,12.13,3.15,21.71,3.73,27.21.36,3.45.74,6.85,1.11,10.17,1.87,16.79,3.48,31.29,1.55,38-.88,3.1-1.72,5.38-2.45,7.38a58.29,58.29,0,0,0-3,10.46c-.57,2.93.15,5.14.91,7.49,1.15,3.51,2.45,7.5-1.16,13.33-2.28,3.68-5.62,10.56-9.16,17.85-4.89,10.07-9.95,20.49-13.77,25.89-2.35,3.33-5.92,7.4-9.71,11.7-6.61,7.52-14.11,16-15.07,20.86-.1.46-.19.92-.28,1.37-1.53,7.46-2.1,10.26,5.55,12.81,7.09,2.36,18-.93,23.21-2.52a14.73,14.73,0,0,1,3.47-.85,2,2,0,0,1,1.87,1.13c.63,1.25-.14,2.26-1.1,3.53s-2.29,3.21-2,3.79c.07.15.67.62,2.57.83,1.6.18,3.06.38,4.46.58,7.08,1,11,1.52,15.8-3.3,3-3,6.15-3.66,8.9-4.2,3.83-.75,7.14-1.41,11-8.46a41.06,41.06,0,0,0,4.69-12.56c.81-3.7,1.58-7.2,5.74-13.74,3.6-5.65,8-8.61,12.26-11.48,5.13-3.46,9.57-6.45,12.1-13.76,4.61-13.33-5.85-38.2-6-38.45l-.62-1.46,1.32-.88s4.06-2.81,4.06-7.14a39.12,39.12,0,0,0-1.48-8.12A85.63,85.63,0,0,1,271,1310.7l0-.48a244.27,244.27,0,0,1,6.8-72.62c3.06-12.71,7.05-25.26,10.91-37.41,6.89-21.69,13.4-42.19,13.4-59.79,0-15.33-.92-30.3-1.67-42.33-.62-10-1.11-18-.92-23.21.21-5.94,2.71-11.67,5.35-17.73s5.44-12.48,6-19.44c1.07-14,1.26-29.73,1.27-29.88a1.91,1.91,0,1,1,3.82,0c0,.16-.2,16-1.28,30.13-.59,7.6-3.48,14.25-6.28,20.67-2.5,5.73-4.86,11.14-5.05,16.35-.18,5,.31,12.89.92,22.84.75,12.08,1.68,27.11,1.68,42.56,0,18.19-6.6,39-13.58,60.95-3.84,12.08-7.81,24.57-10.84,37.15a240.84,240.84,0,0,0-6.7,71.55l0,.47a82.92,82.92,0,0,0,2.78,16.7,41.08,41.08,0,0,1,1.59,9,12.81,12.81,0,0,1-4.51,9.32c2.21,5.59,10,26.89,5.5,39.86-2.95,8.51-8.35,12.15-13.58,15.67-3.93,2.65-8,5.4-11.17,10.37-3.8,6-4.46,9-5.22,12.51a45,45,0,0,1-5.07,13.56c-4.68,8.63-9.41,9.57-13.58,10.39-2.53.5-4.72.93-6.94,3.15A15.53,15.53,0,0,1,212.77,1456.14Z"/><path class="cls-3" d="M220.8,1310.61a1.69,1.69,0,0,1-.38,0,1.91,1.91,0,0,1-1.49-2.25c.11-.55,11-55.08,11.8-92.92.12-5.36.25-11.05.39-17,.88-36.91,2-82.84-.38-113.75-1.88-24.74-7.48-55.18-7.54-55.48a1.91,1.91,0,0,1,3.76-.7c0,.31,5.69,31,7.59,55.89,2.36,31.1,1.27,77.14.39,114.13-.14,5.94-.27,11.64-.39,17-.81,38.18-11.77,93-11.88,93.59A1.91,1.91,0,0,1,220.8,1310.61Z"/><path class="cls-3" d="M273.79,1320.5a1.91,1.91,0,0,1-1.82-1.32c-.14-.43-14.24-44-17.5-78.2-3.37-35.45,1.12-86,4.59-104.27,6.11-32.26,41.81-71.65,43.33-73.31a1.91,1.91,0,0,1,2.82,2.57c-.36.4-36.49,40.26-42.4,71.45-3.43,18.12-7.88,68.1-4.54,103.2,3.22,33.77,17.19,77,17.33,77.38a1.91,1.91,0,0,1-1.22,2.41A2.06,2.06,0,0,1,273.79,1320.5Z"/><path class="cls-3" d="M271.49,1060.47a1.91,1.91,0,0,1-1.82-1.32,1.93,1.93,0,0,1,1.24-2.41c2.58-.82,6.92-5.78,11.36-17.23,3-7.78.16-18.84-1.21-24.15a18.45,18.45,0,0,1-.77-3.71,1.91,1.91,0,0,1,3.82,0c0,.35.36,1.64.65,2.78,1.47,5.7,4.53,17.55,1.07,26.48-2.5,6.43-7.6,17.53-13.76,19.49A2,2,0,0,1,271.49,1060.47Zm12.62-48.82h0Z"/><path class="cls-3" d="M252.91,1060.62c-10.08,0-17.46-6.33-17.79-6.62a1.91,1.91,0,0,1,2.51-2.88h0c.07.07,7.72,6.59,17.37,5.57a1.91,1.91,0,0,1,.4,3.8A23.62,23.62,0,0,1,252.91,1060.62Z"/><path class="cls-3" d="M364.71,308.38a2,2,0,0,1-.9-.23,1.92,1.92,0,0,1-1-2.1c1.78-7.91,3.83-18.47,6-29.64,3.87-19.88,8.25-42.41,12.12-55.08,6.6-21.58,25.19-44.49,26-45.45a1.91,1.91,0,0,1,3.36.92c2.12,14,1.72,36.23.62,46.92-1.18,11.44-22.72,61-44.84,84.07A1.93,1.93,0,0,1,364.71,308.38Zm42.4-126.47c-5.5,7.32-17.61,24.57-22.49,40.53-3.81,12.49-8.17,34.91-12,54.69-1.58,8.13-3.09,15.93-4.49,22.63,20.7-25,38.11-67.62,39-76.43A239.57,239.57,0,0,0,407.11,181.91Z"/><path class="cls-3" d="M482.66,270.71a1.86,1.86,0,0,1-1.14-.38l-72.73-54.21a1.91,1.91,0,0,1,2.28-3.06l72.73,54.21a1.91,1.91,0,0,1-1.14,3.44Z"/><path class="cls-3" d="M573,401.25l-1.88-.67c-2.16-.78-53-19.14-67.81-34l-.19-.19-.13-.24c-1.29-2.35-31.42-57.75-32.61-77.25-.48-7.93,1-13.94,4.5-17.85a12.08,12.08,0,0,1,7.69-4.16h.17l.16,0c2.28.27,55.82,6.83,71.67,32.69,9.79,16,24,52.28,23.19,70.64-.82,18-4,28.67-4.17,29.11Zm-66.79-37.18c12.9,12.65,54.7,28.65,64.25,32.2a138.67,138.67,0,0,0,3.49-26.22c.77-17-13-52.72-22.64-68.47-14.42-23.52-65-30.4-68.65-30.86-1.21.17-9.44,1.88-8.46,17.95C475.27,306.69,504,360,506.19,364.07Z"/><path class="cls-3" d="M581.34,534.72l-2.16-1.91c-29.95-26.44-48-51.48-55.28-76.55-8.72-30.17-10.17-82.31-10.19-82.83l-.09-3.37,2.94,1.66c.2.11,20.58,11.57,51.48,23.65l.46.18.31.38c.53.64,13,15.81,18.75,34,4.22,13.25,12.14,49.73-5.31,102.09ZM517.65,376.65c.47,11.94,2.6,53.23,9.92,78.55,6.86,23.75,23.87,47.59,52,72.81,16.36-51.26,7.54-87.08,4.39-97-5.06-15.91-15.81-29.86-17.75-32.3A471.82,471.82,0,0,1,517.65,376.65Z"/><path class="cls-3" d="M431.58,432.34c-6.48,0-11.72-.27-14.09-.54-10.53-1.22-47.47-23-54.37-31l-.45-.52v-.69c-.42-19.47-.21-65.62.15-81.37.25-11.31.32-12.23,2.42-14.43a15.45,15.45,0,0,0,2.29-3c7.26-12.18,28-14.06,48.66-14.93,16.56-.71,50.32,0,56.44,1.12l1.25.23.27,1.24c3.41,15.81,18.1,53.95,35.74,81.57l.53.83-.36.91c-3,7.46-23.37,43.26-33.21,52.34C469.51,430.8,447,432.34,431.58,432.34Zm-65.12-33.56C374.28,407,409.39,427,417.93,428c11.19,1.29,47.93,1,56.32-6.79,8.95-8.26,28-41.33,31.88-50.06-17.41-27.55-31.46-63.73-35.43-80.67-8-.92-38.17-1.57-54.36-.89-14.49.62-38.73,1.64-45.54,13.08a18.72,18.72,0,0,1-2.8,3.72c-1,1.05-1.13,1.19-1.38,11.89C366.27,333.81,366.06,379,366.46,398.78Z"/><path class="cls-3" d="M647.06,680.75l-.84-1.7c-.3-.63-31-63-40-81.37-1.69-3.44-3.24-6.56-4.69-9.46-6.42-12.9-10.67-21.43-15.8-36.21-7.23-20.79-5.85-26.27-.06-49.34l1.06-4.26.6-2.4,2.17,1.18c.6.33,14.92,8.35,27.41,33.33,8.4,16.79,12.77,34.38,17,51.39,2.07,8.34,4,16.22,6.4,23.82,7.19,23,21.61,65.53,21.75,65.95l.54,1.6ZM589.78,502c-.14.56-.28,1.11-.41,1.65-5.7,22.71-6.88,27.44,0,47.15,5.06,14.56,9.26,23,15.62,35.77,1.45,2.91,3,6,4.7,9.48,8.15,16.63,34.16,69.5,39.17,79.67l9.07-4.36c-2.7-8-14.83-43.95-21.23-64.44-2.41-7.71-4.38-15.64-6.47-24C626,566,621.7,548.64,613.5,532.23,604.36,514,594.12,505.11,589.78,502Z"/><path class="cls-3" d="M637.44,685.08l-.91-1.34c-.6-.9-60.46-89.93-71.2-103.54-6.73-8.53-23.46-30.27-33.26-47.9l-3.91-7,6.65,4.51c2.75,1.86,8,4.58,14,7.73,16.64,8.65,39.43,20.49,48.17,33l.15.25c9.34,18.87,52.06,105.7,52.49,106.58l.87,1.76ZM539.06,536.7c9.76,16,23.38,33.67,29.27,41.14,10.23,13,62.62,90.76,70.47,102.43l6.56-3c-6.14-12.48-42.85-87.07-51.56-104.68-8.27-11.71-31.4-23.73-46.72-31.7C544.09,539.36,541.39,538,539.06,536.7Z"/><path class="cls-3" d="M616.68,694.76l-.93-.84c-.17-.15-4-3.71-7.79-13.85-3.31-8.94-12.16-22-28.7-42.34-3.59-4.4-7-8.28-10.37-12-10.16-11.42-18.94-21.28-26-39.83C532,557.49,526.81,527.27,526.76,527l-1.38-8.12,36,50c1.81,2.56,44.19,62.32,44.88,63.33l33.47,49.47,1.25,1.85ZM532.19,534.84c2.3,10.92,7,30.72,14.24,49.68,6.84,17.89,15.4,27.51,25.31,38.65,3.36,3.78,6.84,7.68,10.48,12.15C599,656,608.08,669.39,611.54,678.74a41.51,41.51,0,0,0,6,11.43l17.78-8.28-32.21-47.6c-.57-.84-29.57-41.75-44.82-63.26Z"/><path class="cls-3" d="M594.17,655.62a1.93,1.93,0,0,1-1.9-1.67h0c0-.2-2.69-20-18-43.33s-36.09-39.68-36.3-39.84a1.91,1.91,0,1,1,2.34-3c.22.16,21.4,16.76,37.15,40.75s18.5,44.11,18.6,45a1.9,1.9,0,0,1-1.65,2.13Z"/><path class="cls-3" d="M526.75,526.86c0-.2-2.41-20.58-8.21-33.24-1.6-3.5-3.55-6.89-5.62-10.48-5.49-9.53-12.31-21.39-16.34-42.33-5.44-28.27-4.85-41.57-4.83-42.12l0-.43,15.63-29.71,10.11,4.18,0,1.22c0,.49,2,49.1,6.77,67.55,4.87,18.85,6.17,82.41,6.22,85.11ZM495.56,399.28c-.05,2.42-.05,15.73,4.77,40.81,3.91,20.31,10.28,31.37,15.9,41.14,2.11,3.67,4.11,7.14,5.78,10.8a77.66,77.66,0,0,1,4,11.23c-.83-20.79-2.45-49.54-5.36-60.81-4.49-17.4-6.5-59.25-6.85-67.13l-4.63-1.91Z"/><path class="cls-3" d="M575.19,528.56a1.89,1.89,0,0,1-1.17-.41,45.58,45.58,0,0,0-6.13-1.08c-10-1.41-28.51-4-40.49-14.24a1.92,1.92,0,0,1-.21-2.7,1.9,1.9,0,0,1,2.69-.21c11.14,9.49,29,12,38.55,13.37,5.35.76,7.09,1,8.07,2a1.92,1.92,0,0,1-1.31,3.31Zm-1.3-.52Z"/><path class="cls-3" d="M680.08,810a7.94,7.94,0,0,1-2.43-.38c-3.21-1-6.3-4-8.48-8.14a73.6,73.6,0,0,1-3.19-7.1c-.79-2-1.54-3.82-2.67-6a92,92,0,0,1-6.69-15.86c-1.55-4.92-3.38-12.43-4.27-16.21a19.84,19.84,0,0,0,1.12,8.51A50.59,50.59,0,0,1,656,775a52.63,52.63,0,0,0,1.42,6.6,59.17,59.17,0,0,1,1.63,6.49,25.43,25.43,0,0,0,1.14,4.42c.12.27.25.56.38.87,1.78,4,4.22,9.56.59,11.54a6,6,0,0,1-4.85.39c-3.26-1.05-6.37-4.49-9-9.94-5.79-12.07-8.91-20.11-9.83-25.29-.4-2.25-.66-4.12-.89-5.78a41.84,41.84,0,0,0-1.65-8,32.68,32.68,0,0,0-2.87-5.64,92.56,92.56,0,0,1-6.35-12.55c-.58-1.38-1.16-2.78-1.74-4.17-3.83-9.14-7.44-17.77-7.43-22.18,0-2-.46-6.17-.87-9.87-1-9.37-1-10,.06-10.87a2,2,0,0,1,1-.44c2.81-.94,27.46-12.69,42.61-20a2,2,0,0,1,1-.19c2.69.22,4.51,1.57,8.37,4.6,1.3,1,6.23,3.06,11,5,8,3.29,17,7,20.15,10.19a59.69,59.69,0,0,1,6.72,9,57.23,57.23,0,0,0,6.26,8.39c2.27,2.33,5.41,4,8.18,5.49s5.43,2.91,6.68,4.82a4.74,4.74,0,0,1-.13,5.49c-1.64,2.33-5.91,4.48-12.59,2.89a32.75,32.75,0,0,0-6.65-.81c-3.86-.17-7.19-.32-11-5-3-3.74-5.1-6.48-6.3-8.07a11.18,11.18,0,0,1-1.34.66c1.14,2.12,3.74,6.44,8.38,13.65,1.7,2.65,4,5.54,6.33,8.61,4,5.13,8.12,10.44,10.06,15.17.33.79.63,1.53.92,2.24a80.15,80.15,0,0,0,7.7,15.45c6.91,10.85,8.51,17.63,4.89,20.72a6.64,6.64,0,0,1-5.15,1.76c-3-.33-6.16-2.87-10.17-8.23C707,774.8,700.48,763,697,756.71a125.73,125.73,0,0,0-7-10.57c1.2,4.31,2.74,8.78,4.32,10.87,2.44,3.22,4.35,8.56,6.18,13.72a96.49,96.49,0,0,0,3.7,9.37,52.67,52.67,0,0,0,3.89,6.24c3.2,4.63,6.21,9,4.05,13a7.54,7.54,0,0,1-6.05,4,12,12,0,0,1-10-4.17c-3.92-4.57-10.82-16.26-14.56-23.9s-6.07-12.56-9.08-19.59a38.11,38.11,0,0,0-3.83-7.13l-.09.07c.73,2.46,2.34,7.88,3.11,10.68.49,1.83,1.59,5.24,2.75,8.85,1.1,3.42,2.35,7.3,3.26,10.39a74.4,74.4,0,0,1,1.75,7.71,30.18,30.18,0,0,0,2,7.58c.42.86,1.06,1.89,1.74,3,2,3.1,4,6.3,3.19,9.19a4.89,4.89,0,0,1-2.57,3.06A7.9,7.9,0,0,1,680.08,810Zm-26.41-58.37a1.88,1.88,0,0,1,1,.25,1.93,1.93,0,0,1,.91,1.23c0,.12,2.68,11.72,4.73,18.23a88.42,88.42,0,0,0,6.45,15.27c1.2,2.36,2,4.39,2.81,6.35a71,71,0,0,0,3,6.76c1.66,3.18,4.05,5.58,6.24,6.26a4,4,0,0,0,3.19-.28c.56-.3.63-.56.66-.67.34-1.28-1.44-4.11-2.73-6.17a36,36,0,0,1-1.95-3.33,33.63,33.63,0,0,1-2.36-8.55,70.91,70.91,0,0,0-1.66-7.33c-.9-3.05-2.09-6.73-3.23-10.3-1.23-3.81-2.29-7.11-2.81-9-1-3.57-3.43-11.77-3.45-11.85a1.91,1.91,0,0,1,.65-2.06l2.61-2a1.92,1.92,0,0,1,2.48.12c.27.26,2.74,2.72,5.72,9.67s5.27,11.81,9,19.42c4,8.22,10.71,19.23,14,23.1a8.14,8.14,0,0,0,6.7,2.85,3.82,3.82,0,0,0,3.1-1.95c1.06-2-1.32-5.43-3.83-9.07a55.32,55.32,0,0,1-4.17-6.72,97.29,97.29,0,0,1-3.87-9.78c-1.74-4.89-3.55-9.94-5.63-12.7-4-5.3-7-20.74-7.17-21.4a1.91,1.91,0,0,1,3.39-1.53c.36.48,9.06,11.73,12.82,18.47,3.49,6.25,10,17.87,15.49,25.23,3.2,4.26,5.73,6.52,7.54,6.73a2.84,2.84,0,0,0,2.25-.88c1.06-.9,1.07-5.24-5.63-15.76a84.76,84.76,0,0,1-8-16.06c-.29-.7-.59-1.44-.91-2.23-1.74-4.25-5.71-9.35-9.54-14.28-2.44-3.13-4.74-6.09-6.53-8.88-5.45-8.48-7.93-12.61-9-14.8a28.91,28.91,0,0,1-10.38-1.07c-11.57-3-25.74-10-30.42-17.51a1.91,1.91,0,1,1,3.24-2c3.61,5.77,15.71,12.58,28.15,15.84,10,2.6,13.07-.4,13.35-.7a1.81,1.81,0,0,1,1.5-.83,1.92,1.92,0,0,1,1.59.85s2.55,3.52,7.38,9.53c2.7,3.36,4.53,3.44,8.17,3.6a37.13,37.13,0,0,1,7.36.91c4.49,1.07,7.59,0,8.58-1.36a.93.93,0,0,0,.07-1.2c-.72-1.1-2.94-2.29-5.29-3.55-3-1.62-6.43-3.45-9.11-6.19a60.2,60.2,0,0,1-6.72-9,57.23,57.23,0,0,0-6.26-8.39c-2.56-2.62-11.6-6.34-18.87-9.33-6.31-2.6-10.26-4.26-11.9-5.55-3.16-2.48-4.5-3.46-5.84-3.73-2.25,1.09-11.54,5.56-20.79,10-13.17,6.26-18.58,8.75-21,9.68.07,1.65.45,5,.73,7.58.44,4,.9,8.11.9,10.29,0,3.65,3.62,12.32,7.13,20.7.58,1.4,1.17,2.8,1.75,4.19a88.81,88.81,0,0,0,6.11,12.08,34.1,34.1,0,0,1,3.2,6.36,44.54,44.54,0,0,1,1.81,8.69c.23,1.62.48,3.47.87,5.65.85,4.76,4,12.71,9.51,24.3,3,6.18,5.68,7.62,6.71,8a2.28,2.28,0,0,0,1.73,0c.3-1.18-1.46-5.18-2.13-6.71l-.39-.89a27.14,27.14,0,0,1-1.38-5.17,58.92,58.92,0,0,0-1.51-6.07,51.82,51.82,0,0,1-1.56-7.13,48.37,48.37,0,0,0-2.3-9.48,24.71,24.71,0,0,1-1.2-12.1,1.93,1.93,0,0,1,1.32-1.49l3-.94A1.87,1.87,0,0,1,653.67,751.59Zm-36-57.32a3.53,3.53,0,0,1-.68.13A1.79,1.79,0,0,0,617.69,694.27Z"/><path class="cls-3" d="M415.53,540.56H382.17a19.38,19.38,0,0,1-19.36-19.37V492.82a19.38,19.38,0,0,1,19.36-19.36h33.36a19.38,19.38,0,0,1,19.37,19.36v28.37A19.39,19.39,0,0,1,415.53,540.56Zm-33.36-63.29a15.57,15.57,0,0,0-15.55,15.55v28.37a15.57,15.57,0,0,0,15.55,15.55h33.36a15.57,15.57,0,0,0,15.55-15.55V492.82a15.57,15.57,0,0,0-15.55-15.55Z"/><path class="cls-3" d="M415.53,604H382.17a19.38,19.38,0,0,1-19.36-19.36V556.11a19.38,19.38,0,0,1,19.36-19.37h33.36a19.39,19.39,0,0,1,19.37,19.37v28.55A19.39,19.39,0,0,1,415.53,604Zm-33.36-63.46a15.57,15.57,0,0,0-15.55,15.55v28.55a15.56,15.56,0,0,0,15.55,15.54h33.36a15.56,15.56,0,0,0,15.55-15.54V556.11a15.57,15.57,0,0,0-15.55-15.55Z"/><path class="cls-3" d="M381.91,742.05H362.84l0-1.88c-.29-17.52-.13-57.52-.05-79,0-6.21.05-10.88.05-13V619.57a19.38,19.38,0,0,1,19.36-19.37h33.36c9.85,0,16.46,7.86,16.46,19.56l0,.23c-.09.73-2.27,17.86-7.4,30.32-.85,2.06-2.32,5.86-4.17,10.67-15,38.87-30,75.55-38,80.76Zm-15.31-3.82h14.13c8.35-6.69,27.74-57,36.11-78.63,1.86-4.83,3.33-8.64,4.2-10.75,4.72-11.46,6.93-27.68,7.13-29.22,0-7.23-3.36-15.61-12.64-15.61H382.17a15.57,15.57,0,0,0-15.55,15.55v28.55c0,2.16,0,6.84,0,13C366.5,681.91,366.35,719.91,366.6,738.23Z"/><path class="cls-3" d="M415.53,477.27H382.17a19.38,19.38,0,0,1-19.36-19.36V433.22c0-8.88,0-13.77-.15-32l0-3.36,46.25,27c12.58,7.42,26,20,26,33C434.9,469.85,427.48,477.27,415.53,477.27Zm-49-72.75c.11,15.56.11,20.38.11,28.7v24.69a15.57,15.57,0,0,0,15.55,15.55h33.36c9.74,0,15.55-5.82,15.55-15.55,0-11.44-12.46-22.87-24.12-29.74Z"/><path class="cls-3" d="M492.82,491.21,491.74,481c0-.33-3.56-33.61-4.64-45.49s-3.23-23-3.25-23.09l-.14-.71,11.52-19.3.34,6.25c0,.19,1.07,19.49,2.33,27.26s5.22,25.85,5.26,26l.09.45Zm-5.08-78.77c.49,2.69,2.23,12.51,3.16,22.75.7,7.68,2.42,24.35,3.56,35.22l4.87-18.08c-.64-2.92-4-18.46-5.2-25.77-.85-5.2-1.58-15-2-21.49Z"/><path class="cls-3" d="M468.63,461.06c-3.38,0-6.77-1.6-10.27-3.24l-1.83-.87,1-1.78c4.11-7.53,5.48-27.74,5.5-27.95l.08-1.33,1.29-.37s3.79-1.11,7.1-2.45c2.08-.85,8.76-7.68,12.83-12.26l2.72-3.06,3.62,24.6-.22.51c-.35.78-8.61,19.3-13.89,24.58C473.87,460.09,471.26,461.06,468.63,461.06Zm-6.9-5.89c5.41,2.46,8.47,3.19,12.1-.43,3.85-3.85,10.38-17.39,12.87-22.93l-2.28-15.47c-3.41,3.66-8.84,9.18-11.52,10.26-2.3.94-4.75,1.74-6.19,2.2C466.35,433.21,465,447.37,461.73,455.17Z"/><path class="cls-3" d="M471.32,486a17.53,17.53,0,0,1-7.5-1.58l-2-.95,1.23-1.84c4.16-6.24,10.25-25.86,10.31-26.05a1.91,1.91,0,1,1,3.65,1.12c-.23.76-5.29,17-9.56,25,5.34,1.45,11.44-.58,14.35-2.43,2-1.3,5.54-11.43,7.65-20.2l-2.67-26.74a1.92,1.92,0,0,1,1.71-2.09,1.9,1.9,0,0,1,2.09,1.71l2.73,27.38-.07.32c-1.11,4.66-5.07,20.09-9.39,22.84A24.75,24.75,0,0,1,471.32,486Z"/><path class="cls-3" d="M466.45,509.57l2.41-3.62c6.14-9.2,8.55-19.06,9.46-22.77.47-1.9.63-2.54,1.57-3a1.92,1.92,0,0,1,2.45,2.67c-.07.24-.2.75-.31,1.2a78.17,78.17,0,0,1-7.76,20.36c5.14-.92,10-2.18,13.11-5,2.7-2.5,4.09-12.63,4.34-18.54L490,464a1.91,1.91,0,0,1,3.8-.4l1.8,17.19v.14c-.07,1.71-.8,16.92-5.57,21.33s-12.06,5.53-19.15,6.65Zm15-25.85Zm0,0Zm0,0h0Zm0,0Zm0,0Zm0,0Zm0,0Zm0,0Zm0,0Zm0,0h0Zm0,0Z"/><path class="cls-3" d="M468.53,527.09l2-3.27a126.87,126.87,0,0,0,9.69-20,1.91,1.91,0,0,1,3.58,1.32,132.26,132.26,0,0,1-7.9,17.05c5.61-1.42,10.21-4.42,11.08-6s1.86-11.88,2.45-20.69a1.91,1.91,0,0,1,3.82.26c-.31,4.54-1.43,19.58-2.94,22.29-1.88,3.37-10.14,7.87-18,8.61Z"/><path class="cls-3" d="M425.5,478.18a1.91,1.91,0,0,1-1.2-3.39,139.78,139.78,0,0,1,34.19-20.48,1.91,1.91,0,1,1,1.37,3.56,139,139,0,0,0-33.16,19.89A1.93,1.93,0,0,1,425.5,478.18Z"/><path class="cls-3" d="M433,514.74a2,2,0,0,1-1.1-.35,1.91,1.91,0,0,1-.46-2.66c14.09-20.09,29.64-32.25,32.89-32.79a1.91,1.91,0,0,1,.68,3.75c-1.92.63-16.23,11-30.45,31.23A1.9,1.9,0,0,1,433,514.74Zm32-32h0Z"/><path class="cls-3" d="M430.08,548.37a1.88,1.88,0,0,1-1.2-.43,1.91,1.91,0,0,1-.29-2.68c17.4-21.55,40.46-39.58,40.69-39.76a1.91,1.91,0,1,1,2.34,3c-.22.18-22.94,18-40.05,39.15A1.94,1.94,0,0,1,430.08,548.37Z"/><path class="cls-3" d="M432.55,590.45a1.91,1.91,0,0,1-1.64-2.88c14-23.76,39.41-63.37,39.67-63.77a1.91,1.91,0,1,1,3.21,2.06c-.25.4-25.59,39.95-39.6,63.65A1.9,1.9,0,0,1,432.55,590.45Z"/><path class="cls-3" d="M418.17,663.75a1.91,1.91,0,0,1-1-3.51c.1-.06,10-6.54,23-22.77,10.29-12.8,22-46.22,29-66.19,2.08-5.93,3.73-10.62,4.94-13.69,5.35-13.56,12.63-40.62,12.7-40.89a1.91,1.91,0,1,1,3.69,1c-.07.27-7.4,27.54-12.84,41.3-1.18,3-2.9,7.89-4.89,13.55-7.09,20.2-19,54-29.66,67.32-13.49,16.78-23.51,23.32-23.93,23.59A1.87,1.87,0,0,1,418.17,663.75Z"/><path class="cls-3" d="M364.55,776.24a1.91,1.91,0,0,1-.18-3.81,34.85,34.85,0,0,0,6.55-1.37c2.21-.95,14.64-13.93,23.72-23.4,4.32-4.51,8.4-8.77,11.89-12.31,2.53-2.56,6.66-6.58,11.9-11.67,19.37-18.82,55.42-53.84,61.91-66.6,8.06-15.86,7.87-30.8,5-49.76-2.85-18.58-11.14-48.22-11.22-48.51a1.91,1.91,0,1,1,3.67-1c.09.3,8.43,30.16,11.33,49,2.95,19.16,3.17,35.36-5.33,52.07C477,672.14,442,706.12,421.09,726.42c-5.22,5.07-9.34,9.08-11.84,11.61-3.47,3.52-7.54,7.77-11.85,12.27-15.28,15.94-22.75,23.55-25.27,24.39a39.36,39.36,0,0,1-7.39,1.54Z"/><path class="cls-3" d="M503.06,1021.59l-2.13-9.53c0-.16-3.78-16.78-5.86-21.46-1.22-2.75-3.63-9.37-5-13.07-.83-2.33-1.68-4.75-2.34-6.63-.3-.88-.55-1.61-.71-2.11-.35-1-.57-1.72,0-2.54l.65-.89,1.1.13a1.92,1.92,0,0,1,1.59,1.24,1.94,1.94,0,0,1,.14.51c.78,2.43,6.1,17.55,8,21.81a104.22,104.22,0,0,1,3.89,13c2.33-14.2,7.14-43.75,13.21-82.86,7.89-50.78,2.4-97.48-1.6-131.58q-.6-5.1-1.14-9.75c-3.75-33.27-30.47-122.67-30.74-123.57a1.91,1.91,0,0,1,3.66-1.09c.27.9,27.09,90.62,30.88,124.23q.53,4.65,1.13,9.73c4,34.32,9.56,81.32,1.59,132.62-8.63,55.56-14.71,91.86-14.77,92.22Z"/><path class="cls-3" d="M477.77,999.09l-1.69-2.83c-.78-1.32-1.59-2.64-2.43-4-5.13-8.37-11.52-18.78-17-37.34a1.91,1.91,0,1,1,3.66-1.09c5.39,18.07,11.37,27.83,16.65,36.44.24.38.47.77.7,1.15,19.18-38.36,35.15-148.55,33.12-180.23C507,753.11,459.55,686,459.07,685.28a1.91,1.91,0,1,1,3.11-2.22,376.68,376.68,0,0,1,24.73,41.45c11.52,22.34,25.66,55.48,27.64,86.43,1.1,17.32-2.63,54.47-9.29,92.46-7.58,43.24-17,77.07-25.87,92.82Z"/><path class="cls-3" d="M423.08,777a1.9,1.9,0,0,1-1.86-1.49,164.83,164.83,0,0,0-15-37.89,1.91,1.91,0,1,1,3.35-1.83,164.61,164.61,0,0,1,15.37,38.88,1.9,1.9,0,0,1-1.44,2.28A2,2,0,0,1,423.08,777Z"/><path class="cls-3" d="M410.82,964.09a1.91,1.91,0,0,1-1.82-1.33c-.1-.29-9.56-29.87-17.82-52.85S377.45,868,375.8,845c-1.89-26.33-6.13-71.51-6.18-72a1.91,1.91,0,1,1,3.8-.35c.05.45,4.3,45.67,6.19,72,1.62,22.54,7,41.15,15.17,63.87,8.28,23,17.76,52.68,17.86,53a1.92,1.92,0,0,1-1.24,2.4A2,2,0,0,1,410.82,964.09Z"/><path class="cls-3" d="M453.79,1004.73l-1.66-.54c-.29-.1-7.2-2.44-15.62-11.42s-13.91-36.17-14-38.35a1.91,1.91,0,0,1,3.82-.1c.17,2.57,5.47,27.88,12.92,35.83a45.35,45.35,0,0,0,12.32,9.65c1.11-3.5,3.39-12.14,4.57-27,1.51-19-2.14-45.1-9.74-69.66-7-22.7-17.71-65.67-17.82-66.1a1.91,1.91,0,1,1,3.71-.92c.1.43,10.76,43.29,17.76,65.89,7.74,25,11.44,51.58,9.9,71.09-1.64,20.81-5.35,29.69-5.51,30.06Z"/><path class="cls-3" d="M517.15,1456.14a15.53,15.53,0,0,1-11.86-5.06c-2.22-2.22-4.41-2.65-6.94-3.15-4.17-.82-8.9-1.76-13.58-10.39a44.65,44.65,0,0,1-5.06-13.56c-.77-3.51-1.43-6.54-5.23-12.51-3.17-5-7.24-7.72-11.17-10.37-5.23-3.52-10.63-7.16-13.58-15.67-4.49-13,3.29-34.27,5.5-39.86a12.81,12.81,0,0,1-4.51-9.32,41.08,41.08,0,0,1,1.59-9,82.92,82.92,0,0,0,2.78-16.7l0-.47a240.84,240.84,0,0,0-6.7-71.55c-3-12.58-7-25.07-10.84-37.15-7-22-13.58-42.76-13.58-60.95,0-15.45.93-30.48,1.68-42.56.61-9.95,1.1-17.81.92-22.84-.19-5.21-2.55-10.62-5-16.35-2.8-6.42-5.7-13.07-6.29-20.67-1.08-14.08-1.27-30-1.27-30.13a1.91,1.91,0,1,1,3.81,0c0,.15.2,15.92,1.27,29.88.54,7,3.3,13.3,6,19.44s5.14,11.79,5.35,17.73c.19,5.22-.3,13.16-.92,23.21-.75,12-1.67,27-1.67,42.33,0,17.6,6.51,38.1,13.4,59.8,3.86,12.14,7.85,24.69,10.91,37.4a243.87,243.87,0,0,1,6.8,72.62l0,.48a85.63,85.63,0,0,1-2.88,17.43,39.12,39.12,0,0,0-1.48,8.12c0,4.33,4,7.12,4.06,7.15l1.3.88-.6,1.45c-.11.25-10.57,25.13-6,38.45,2.53,7.31,7,10.3,12.1,13.76,4.26,2.87,8.67,5.83,12.26,11.48,4.16,6.54,4.93,10,5.74,13.74a41.06,41.06,0,0,0,4.69,12.56c3.82,7,7.13,7.71,11,8.46,2.75.54,5.86,1.16,8.9,4.2,4.82,4.82,8.72,4.28,15.8,3.3,1.4-.2,2.86-.4,4.46-.58,1.9-.21,2.51-.68,2.57-.83.14-.32-.1-1.23-2-3.79-1-1.27-1.73-2.28-1.1-3.53a2,2,0,0,1,1.87-1.13,14.73,14.73,0,0,1,3.47.85c5.24,1.59,16.12,4.88,23.21,2.52,7.65-2.55,7.08-5.35,5.55-12.81-.09-.45-.18-.91-.28-1.37-1-4.82-8.46-13.34-15.07-20.86-3.78-4.3-7.36-8.37-9.71-11.7-3.82-5.41-8.88-15.82-13.77-25.89-3.54-7.29-6.88-14.17-9.16-17.85-3.61-5.83-2.31-9.82-1.16-13.33.76-2.35,1.48-4.56.91-7.49a58.29,58.29,0,0,0-3-10.46c-.73-2-1.57-4.28-2.45-7.38-1.93-6.73-.31-21.23,1.55-38,.37-3.32.75-6.72,1.11-10.17.58-5.5,2-15.08,3.73-27.21,4.91-33.86,12.34-85,11.54-112.2-1-32.82-10.61-61.08-17.65-81.72-.86-2.51-1.68-4.91-2.44-7.2-6.46-19.37-5-29.42-4.38-32a1.91,1.91,0,0,1,3.77.65s0,.11-.05.22c-.39,1.68-2,11.06,4.28,30,.76,2.28,1.58,4.68,2.43,7.18,7.12,20.86,16.87,49.44,17.85,82.84.81,27.5-6.64,78.87-11.57,112.86-1.76,12.09-3.14,21.64-3.71,27.06-.36,3.46-.74,6.87-1.11,10.19-1.82,16.39-3.4,30.54-1.68,36.55.85,3,1.62,5.08,2.37,7.11a62.76,62.76,0,0,1,3.17,11.05c.76,3.91-.19,6.82-1,9.4-1.06,3.25-1.9,5.82.78,10.14,2.38,3.84,5.76,10.81,9.35,18.19,4.6,9.47,9.81,20.21,13.45,25.36,2.23,3.16,5.74,7.15,9.46,11.38,7.27,8.26,14.78,16.81,16,22.63q.13.69.27,1.35c1.5,7.29,2.78,13.58-8.09,17.2-7.46,2.49-17.74-.18-23.78-2a5.54,5.54,0,0,1,.68,4.93c-1.13,2.61-4.54,3-5.66,3.12-1.55.17-3,.37-4.36.56A53.71,53.71,0,0,1,517.15,1456.14Z"/><path class="cls-3" d="M509.12,1310.61a1.91,1.91,0,0,1-1.87-1.54c-.11-.55-11.07-55.41-11.88-93.59-.11-5.35-.25-11-.39-17-.88-37-2-83,.39-114.13,1.9-24.94,7.54-55.58,7.59-55.89a1.91,1.91,0,1,1,3.76.7c-.06.3-5.66,30.74-7.54,55.48-2.35,30.91-1.26,76.84-.38,113.75.14,5.95.27,11.64.39,17,.8,37.85,11.69,92.38,11.81,92.92a1.92,1.92,0,0,1-1.5,2.25A1.64,1.64,0,0,1,509.12,1310.61Z"/><path class="cls-3" d="M456.27,1319.63a2.06,2.06,0,0,1-.59-.09,1.91,1.91,0,0,1-1.22-2.41c.14-.43,14-42.75,17.19-76.51,3.34-35.1-1.11-85.08-4.54-103.2-5.91-31.2-41.83-70.52-42.2-70.92a1.91,1.91,0,1,1,2.81-2.58c1.51,1.64,37,40.53,43.14,72.79,3.47,18.31,8,68.82,4.59,104.27-3.26,34.19-17.22,76.91-17.36,77.34A1.92,1.92,0,0,1,456.27,1319.63Z"/><path class="cls-3" d="M458.43,1060.47a1.89,1.89,0,0,1-.8-.17c-2.18-1-7-7.4-11.64-17.29-5.35-11.4-2.08-23.89-.69-29.22.23-.89.49-1.89.51-2.17a1.9,1.9,0,0,1,1.91-1.9,1.93,1.93,0,0,1,1.91,1.93,14.25,14.25,0,0,1-.64,3.1c-1.39,5.35-4.3,16.49.46,26.64,4.66,9.94,8.86,14.85,9.81,15.46a1.91,1.91,0,0,1-.83,3.62Zm.85-3.61Zm-.06,0h0Z"/><path class="cls-3" d="M477,1060.62a23.67,23.67,0,0,1-2.5-.13,1.91,1.91,0,0,1,.4-3.8c9.64,1,17.3-5.5,17.37-5.57a1.91,1.91,0,1,1,2.51,2.88C494.47,1054.29,487.09,1060.62,477,1060.62Z"/><path class="cls-3" d="M427.87,98.48h0A1.91,1.91,0,0,1,426,96.56c.07-28-2.81-51.58-7.33-59.94C408,17,382.43,3.82,365.21,3.82S322.41,17,311.79,36.62c-4.28,7.89-7.08,29.12-7.33,55.42,0,1.38,0,2.77,0,4.16a1.9,1.9,0,0,1-1.91,1.91h0a1.9,1.9,0,0,1-1.91-1.9c0-1.41,0-2.81,0-4.21.2-21.06,2.35-47.15,7.79-57.2C320.06,13.3,347,0,365.21,0S410.35,13.3,422,34.8c5.84,10.78,7.86,39,7.8,61.77A1.9,1.9,0,0,1,427.87,98.48Z"/><path class="cls-3" d="M365.21,203.07c-5.89,0-11.78-.41-15.18-1.23-7.13-1.71-25.32-16-38.76-35.35-5-7.17-7.55-22.8-8.83-34.65a1.91,1.91,0,1,1,3.79-.41c1.75,16.13,4.65,27.8,8.17,32.88,12.54,18.07,30.29,32.32,36.52,33.82s22.3,1.5,28.57,0,24-15.75,36.52-33.82c3.21-4.63,6-16.56,8-33.59a1.91,1.91,0,0,1,3.8.43c-1.41,12.49-4,28.75-8.62,35.34-13.44,19.36-31.64,33.64-38.77,35.35C377,202.66,371.09,203.07,365.21,203.07Z"/><path class="cls-3" d="M300.82,135.92a3,3,0,0,1-.54,0c-2.46-.33-4.56-2.87-5.47-6.63L288.68,104a12.37,12.37,0,0,1,2.4-9.94c.81-1,2.11-2.27,3.66-2.27,2.09,0,6.69,2,8.05,2.65a1.91,1.91,0,1,1-1.59,3.47,32.54,32.54,0,0,0-6.32-2.29c-1,.56-3.28,4.2-2.49,7.48l6.13,25.22c.61,2.52,1.78,3.68,2.27,3.75.21,0,.73-.32,1.33-1.4a1.91,1.91,0,0,1,3.34,1.86C303.9,135.36,302,135.92,300.82,135.92Z"/><path class="cls-3" d="M429.33,135.44c-1.26,0-3.43-.51-5.13-3.57a1.91,1.91,0,0,1,3.34-1.86c.29.52,1.06,1.72,1.87,1.61s1.86-1.29,2.34-3.27l6.13-25.22c.79-3.28-1.5-6.92-2.49-7.48a31.88,31.88,0,0,0-6.32,2.29,1.91,1.91,0,1,1-1.58-3.47c1.35-.62,5.95-2.65,8-2.65,1.56,0,2.85,1.23,3.66,2.27a12.37,12.37,0,0,1,2.4,9.94l-6.13,25.22c-.82,3.39-3,5.81-5.54,6.15A4.69,4.69,0,0,1,429.33,135.44Z"/></g></g></g></svg>