<svg width="current" height="current" xmlns="http://www.w3.org/2000/svg" viewBox="0 0 729.26 1424.27"><defs><style>.cls-1{fill:#d7e2f1;}.cls-2{fill:#4c80ba;}.cls-3{fill:#f2888a;}</style></defs><g id="레이어_2" data-name="레이어 2"><g id="_迹_1" data-name="卵迹_1"><g id="gluteal_muscle" data-name="gluteal muscle"><path class="cls-1" d="M720.58,767c-4.52-7.1-8.55-9.8-11.51-17s-8.86-17.23-13.5-24.44-10-15.79-9.29-15.91h0c3.15-.69,4.2-2.18,4.2-2.18s2.52,3.48,7.45,9.62,8.36,3.2,16.57,5.17,12.74-2.36,10.69-5.48-9.85-5.12-14.63-10-8.21-12.46-13-17.35-27.24-12.12-31-15-5.22-4-7.34-4.2l-.09,0c-3-8.92-14.73-43.68-21-63.85-7.28-23.28-10.91-50.19-23.28-74.92s-21.06-35-21.06-35-.82-13.63-.82-13.63c.77-29-3.26-38.68-7.58-52.27a86.35,86.35,0,0,0-15.61-29l1.61-2.66s3.27-10.64,4.09-28.64S562,316,552.6,300.59c-15.55-25.37-70.26-31.79-70.26-31.79L409.6,214.59l-.12-3c.32-11.13,0-24.72-1.38-34.48h-.05a127.73,127.73,0,0,0,9.19-11.69c3.86-5.56,6.6-17.4,8.28-31.84.39-3.33,4.79,4.65,7.75-5.46,1.44-4.93,3.22-13,4.09-16.84,1.64-7.15-.82-13.43-.8-16.69,0-2.67-9.22,3.48-9.19,2,.46-28-2-50.91-7.4-60.86-10.64-19.65-36.28-33.8-55.1-33.8h-.48c-18.82,0-44.46,14.15-55.1,33.8-5,9.27-7.61,34.48-7.57,60.5,0,2.53-9.28-4-9.23-1.43s-2.46,8.8-1.3,13.56c.86,3.55,3.23,13.41,4.09,16.84,4.65,18.48,7.9,3.31,8.24,6.49C305.18,147,308,159.6,312,165.4a129.41,129.41,0,0,0,9.18,11.69h0c-1.44,9.76-1.7,23.35-1.38,34.48l-.12,3L246.92,268.8s-54.71,6.42-70.26,31.79c-9.42,15.36-23.73,51.55-22.91,69.55s4.09,28.64,4.09,28.64l1.61,2.66a86.35,86.35,0,0,0-15.61,29c-4.32,13.59-7.58,26.32-8.4,65.9,0,0-8.7,10.28-21.06,35S98.38,583,91.1,606.3c-6.3,20.17-18,54.93-21,63.85l-.09,0c-2.12.17-3.63,1.28-7.34,4.2s-26.17,10.15-30.95,15-8.21,12.46-13,17.35-12.58,6.91-14.63,10,2.47,7.44,10.69,5.48,11.64,1,16.57-5.17,7.45-9.62,7.45-9.62,1,1.49,4.2,2.18h0c.65.12-4.66,8.69-9.3,15.91s-11,18.23-14,25.44-6.48,8.91-11,16c-4,6.34-8.7,15.31-5.27,18.24S10.48,786.37,16,779,27.86,760.3,31.6,753.6s12.67-18.23,12.67-18.23-6.09,21.86-8.39,26.68c-2.71,5.67-4.79,10-8.11,16.72s-10.38,13-8,17.53,9.32,3.63,12.93-.56S43.14,780.18,47,772.24s6.14-12.71,9-19.51,5.27-9,5.27-9l2.6,2s-2.47,8.26-3.47,11.89-2.67,11.77-4.54,18.08-4.37,9.54-6.14,15.82c-1.23,4.34-7,11.24-2.44,13.65s9.35-1.68,12-6.78,3.42-8.37,5.85-13.12a90.68,90.68,0,0,0,6.57-15.57c2.1-6.65,4.77-18.38,4.77-18.38l3,.94a22.71,22.71,0,0,1-1.08,11c-2.11,5.17-2.43,12.25-3.9,16.74s-1.78,8.64-2.83,11.08c-1.37,3.16-4.09,8.72-1.8,10,3.07,1.68,7.46-.92,11.18-8.69s8.54-18.4,9.68-24.8,1.16-9.76,2.6-14.07,5.08-8.17,9.28-18.31,9-21,9-25.62c0-3.21,1.17-12.55,1.63-18,1.27-1.52,3.87-5.2,6.46-12.21,3.64-9.82,13.54-23.85,29-42.87,14.45-17.77,26.81-27,36.09-51.33,10.91-28.55,16-58.55,16-58.55s2.36-20.73,8.37-33.83c5.07-11.08,14.46-16.19,20.17-36,1.19,4.41,6.47,24,6.47,24s.35,8.71,2.26,14.88h0s1.28,18.95,2.7,21.49,7.31,27.28,12.77,41.1c0,0-8.37,29.82-11.28,48.74s3.17,46.68,3.17,46.68-27,90.07-30.81,123.89S203.3,863.26,212,919.45c7.69,49.46,13.28,83.28,14.51,90.67.43,4,.51,13.2-4.69,28.8-7.09,21.28-19.09,52.38-20.18,89.48s13.09,118.93,15.27,139.66,4.91,39.82,2.73,47.46-3.92,9.82-5.51,18,5.41,11.46,0,20.19-21.15,16.42-30.62,25c-8.44,7.6-24.46,9.69-25.37,15.69-1.25,8.25,3.28,5.27,9.51,7.12,9.92,2.94,21.46,7.3,23.1,7.3s17-1.27,26.85-.18,10.77,4.55,13.88,6.35c3.83,2.21,8.41,5.16,12.85,6.45a53.17,53.17,0,0,0,12.74,1c14.37-.92,19.37,1.45,24.28-12.74S272,1345,272,1345s4.91-3.27,4.91-8.73-3.81-13.64-4.36-25.64c0-1.09-.11-2.29-.16-3.59l9.35-78.51c8.81-32,21.91-62.79,21.91-88.11,0-27.83-3-54-2.6-65.47s10.23-22.91,11.32-37.1-.74-32-.74-32S316,983.52,320,958.06c3.33-10.29,10.89-33.41,17.21-51,8.36-23.28,13.65-41.86,15.27-64.37,1.66-23.08,5.08-60.14,6-69.7a9.2,9.2,0,0,0,6.15-.67,9.19,9.19,0,0,0,6.15.67c.89,9.56,4.31,46.62,6,69.7,1.61,22.51,6.91,41.09,15.27,64.37,6.32,17.57,13.88,40.69,17.21,51,4.07,25.46,8.47,49.63,8.47,49.63s-1.95,16-.86,30.14,10.91,25.64,11.33,37.1-2.6,37.64-2.6,65.47c0,25.32,13.1,56.06,21.9,88.11l9.36,78.51c-.06,1.3-.11,2.5-.16,3.59-.55,12-4.37,20.19-4.37,25.64s4.91,8.73,4.91,8.73-1.19,2.81-2.61,7.08l.66.28c-3.73,14.54-11.12,46.46-7.38,57.28,4.91,14.19,9.91,11.82,24.28,12.74a53.17,53.17,0,0,0,12.74-1c4.44-1.29,9-4.24,12.85-6.45,3.11-1.8,4.06-5.26,13.88-6.35s25.21.18,26.85.18,13.18-4.36,23.1-7.3c6.23-1.85,10.76,1.13,9.51-7.12-.91-6-16.93-8.09-25.37-15.69-9.47-8.53-25.22-16.22-30.63-25l-.44-.75-.26-.5c0-.07-.07-.14-.11-.2l-.29-.63,0,0c-.09-.22-.18-.43-.26-.65h0c-2.54-6.76,2.79-10.16,1.38-17.42-1.58-8.18-3.32-10.36-5.5-18s.54-26.73,2.73-47.46,16.36-102.57,15.27-139.66-13.09-68.2-20.18-89.48c-5.2-15.6-5.12-24.83-4.69-28.8,1.23-7.39,6.82-41.21,14.51-90.67,8.72-56.19,1.09-108-2.73-141.85s-30.81-123.89-30.81-123.89,6.08-27.77,3.17-46.68-11.28-48.74-11.28-48.74c5.46-13.82,11.35-38.55,12.77-41.1s2.7-21.49,2.7-21.49h0c1.91-6.17,2.26-14.88,2.26-14.88l4.59-26.4a38.53,38.53,0,0,0,5.53,10.38c8.78,13.84,11.44,16.94,16.52,28,6,13.1,8.37,33.83,8.37,33.83s5.09,30,16,58.55c9.28,24.29,21.64,33.56,36.09,51.33,15.47,19,25.38,33.05,29,42.87,2.6,7,5.2,10.69,6.47,12.21.46,5.43,1.63,14.77,1.63,18,0,4.67,4.83,15.48,9,25.62s7.83,14,9.28,18.31,1.47,7.67,2.6,14.07,6,17,9.67,24.8,8.12,10.37,11.19,8.69c2.29-1.25-.43-6.81-1.8-10-1.05-2.44-1.36-6.59-2.83-11.08s-1.79-11.57-3.9-16.74a22.71,22.71,0,0,1-1.08-11l3-.94s2.67,11.73,4.77,18.38a90.68,90.68,0,0,0,6.57,15.57c2.43,4.75,3.19,8,5.85,13.12s7.44,9.2,12,6.78-1.21-8.62-3.19-12.68-2-9.28-3.91-15.59-5-15.65-6-19.28-3.47-11.89-3.47-11.89l2.6-2s2.36,2.24,5.27,9,5.16,11.57,9,19.51,10.7,19.31,14.3,23.5,10.52,5,12.93.56-4.64-10.79-8-17.53-7.61-13.62-9.69-22.79c-1.39-6.13-6.81-20.61-6.81-20.61s8.93,11.54,12.67,18.23,10.13,18.12,15.63,25.44,9.12,9.09,12.56,6.16S724.62,773.3,720.58,767ZM240.91,967.48h0Zm247.44,0h0Z"/><path class="cls-2" d="M570.92,523.76a5.12,5.12,0,0,1,2.1.71Z"/><path class="cls-2" d="M50.14,809a7.76,7.76,0,0,1-3.68-.93,5.06,5.06,0,0,1-2.64-3.1c-.89-3.07,1.19-6.69,3-9.89.52-.91,1-1.76,1.37-2.5a107.72,107.72,0,0,0,6-15.8c1.13-3.79,2.16-8.51,3-12.31.55-2.51,1-4.68,1.42-6.14.77-2.8,2.38-8.22,3.11-10.68l-.1-.08a39.59,39.59,0,0,0-3.82,7.13c-3,7-5.33,11.93-9.08,19.6S38.1,793.63,34.17,798.2a12,12,0,0,1-10,4.17,7.55,7.55,0,0,1-6.05-4c-2.47-4.6.83-9.2,4.32-14.07.85-1.19,1.74-2.43,2.57-3.7a76.62,76.62,0,0,0,8.58-16.18c1-2.67,3.06-9.19,4.92-15.31-3.06,4.86-6.28,10.06-7.92,13-3.72,6.66-7.4,11.65-13.09,19.25-4,5.36-7.15,7.89-10.18,8.23a6.66,6.66,0,0,1-5.15-1.76c-3.81-3.26-2.59-9.65,3.53-18.5,1.46-2.12,2.72-3.86,3.83-5.39a74.23,74.23,0,0,0,7.19-11.39l1.5-3c4.39-8.7,8.53-16.93,12.75-23.49,1.59-2.46,3.41-5.18,5-7.58s3.62-5.4,4.6-7c-.41-.24-.8-.43-1.14-.59-1.13,1.51-3.34,4.41-6.63,8.51-3.78,4.7-7.12,4.85-11,5a33.3,33.3,0,0,0-6.65.8c-6.68,1.6-11-.55-12.59-2.88a4.77,4.77,0,0,1-.14-5.5c1.26-1.9,3.77-3.25,6.69-4.81,2.77-1.48,5.9-3.17,8.18-5.49a57.23,57.23,0,0,0,6.26-8.39,59.61,59.61,0,0,1,6.72-9c3.11-3.17,12.16-6.9,20.15-10.18,4.76-2,9.68-4,11-5,3.85-3,5.67-4.39,8.36-4.6a1.89,1.89,0,0,1,1,.19c15.15,7.32,39.79,19.07,42.6,20a2,2,0,0,1,1,.44c1.1.89,1.1,1.5.06,10.87-.41,3.7-.87,7.9-.87,9.87,0,4.41-3.61,13-7.43,22.17-.58,1.4-1.17,2.8-1.74,4.18-1.83,4.44-3.49,8.21-4.82,11.24-1.72,3.91-3.08,7-3.87,9.35a118.68,118.68,0,0,0-4.49,16.71c-.9,5.09-3.15,9.52-5.76,14.65-.86,1.68-1.74,3.42-2.65,5.32-2.61,5.45-5.72,8.88-9,9.94a6,6,0,0,1-4.85-.39c-3.63-2-1.19-7.51.58-11.54.14-.31.27-.6.38-.87.72-1.67,1.3-3.49,2.1-6,.32-1,.67-2.12,1.09-3.38a102.69,102.69,0,0,0,3.34-14.46,85.2,85.2,0,0,0,1.13-12.22c-1.12,3.92-3.31,11.76-4.48,17.26-1.51,7.05-2.43,9.8-4.94,14.7-1.26,2.47-2.42,4.48-3.64,6.6-1.13,1.95-2.29,4-3.57,6.41-2.18,4.18-5.27,7.14-8.49,8.14A7.88,7.88,0,0,1,50.14,809Zm11.2-66a1.88,1.88,0,0,1,1.17.4l2.6,2a1.9,1.9,0,0,1,.66,2.06c0,.08-2.48,8.28-3.45,11.85-.38,1.36-.84,3.48-1.38,5.95-.84,3.85-1.88,8.65-3,12.58a112.23,112.23,0,0,1-6.25,16.38c-.41.85-.93,1.76-1.48,2.73-1.32,2.28-3.11,5.41-2.67,6.92a1.27,1.27,0,0,0,.75.8,4,4,0,0,0,3.19.28c2.18-.68,4.57-3.08,6.23-6.26,1.32-2.53,2.5-4.58,3.65-6.56s2.33-4,3.55-6.43c2.35-4.59,3.17-7,4.6-13.76,1.64-7.71,5.11-19.48,5.26-20a1.91,1.91,0,0,1,2.39-1.28l3,.94a1.89,1.89,0,0,1,1.35,1.77,85,85,0,0,1-1.19,15,105.14,105.14,0,0,1-3.47,15c-.41,1.25-.76,2.36-1.08,3.35a64.54,64.54,0,0,1-2.23,6.36l-.39.9c-.68,1.53-2.44,5.53-2.13,6.71a2.28,2.28,0,0,0,1.73,0c1-.33,3.74-1.77,6.7-8,.93-1.94,1.83-3.7,2.7-5.4,2.57-5.06,4.6-9,5.4-13.59a124.52,124.52,0,0,1,4.63-17.26c.84-2.51,2.23-5.67,4-9.67,1.39-3.17,3-6.76,4.79-11.16.58-1.39,1.16-2.79,1.75-4.19,3.51-8.38,7.13-17,7.13-20.7,0-2.18.45-6.3.9-10.29.28-2.58.65-5.93.73-7.58-2.43-.93-7.85-3.42-21-9.68-9.26-4.4-18.54-8.87-20.79-10-1.34.27-2.69,1.25-5.84,3.73-1.64,1.29-5.59,3-11.9,5.55-7.27,3-16.31,6.71-18.87,9.32a57.88,57.88,0,0,0-6.26,8.4,60.2,60.2,0,0,1-6.72,9C17.38,712,14,713.83,11,715.44c-2.35,1.27-4.58,2.46-5.3,3.55a1,1,0,0,0,.08,1.2c1,1.41,4.09,2.44,8.57,1.37a37.3,37.3,0,0,1,7.37-.91c3.64-.16,5.46-.24,8.16-3.6,4.84-6,7.36-9.5,7.39-9.53a1.91,1.91,0,0,1,2.09-.72,16.76,16.76,0,0,1,4.81,2.49h0a2.08,2.08,0,0,1,.65.82c.54,1.3.33,1.69-5.62,10.55-1.6,2.39-3.41,5.09-5,7.53-4.11,6.39-8.21,14.53-12.55,23.14l-1.51,3a77,77,0,0,1-7.5,11.91c-1.09,1.52-2.34,3.24-3.78,5.33C4.35,778,2.71,783.31,4.65,785a2.84,2.84,0,0,0,2.25.87c1.81-.2,4.35-2.46,7.54-6.72,5.77-7.69,9.21-12.36,12.81-18.82,3.73-6.67,14.94-24,15.42-24.75a1.91,1.91,0,0,1,3.43,1.58c-.27.93-6.75,23-8.94,28.7a80.82,80.82,0,0,1-8.95,16.91c-.88,1.34-1.79,2.61-2.67,3.84-3.35,4.67-5.34,7.65-4.06,10a3.83,3.83,0,0,0,3.1,2,8.12,8.12,0,0,0,6.7-2.86c3.32-3.86,10-14.87,14-23.09,3.72-7.61,6-12.46,9-19.42s5.45-9.41,5.72-9.67A1.92,1.92,0,0,1,61.34,743Zm51.19-49.7a1.79,1.79,0,0,0,.68.13A3.53,3.53,0,0,1,112.53,693.31Z"/><path class="cls-2" d="M364.63,550.1a1.91,1.91,0,0,1-1.61-.88c-.3-.47-29.71-46.73-42.69-71.61-12.77-24.48-21.85-78-24.22-108.21-2.17-27.73-19.86-46-35.47-62.11-17.19-17.74-34.54-24.5-47.73-28.41a1.91,1.91,0,0,1-.49-3.43c7.23-4.69,20.75-6.54,28.83-7.65,2.3-.32,4.48-.62,5.07-.81,3.77-1.34,45.63-33.29,71.57-53.44.39-2,1.85-7.85,7.23-23.85,3.79-11.27,6.51-25.59,8.7-37.1,2.24-11.79,3.59-18.59,5.24-21.07,3.67-5.5,22-5.4,25.61-5.33a1.91,1.91,0,0,1,1.87,1.91V548.19a1.9,1.9,0,0,1-1.38,1.83A1.59,1.59,0,0,1,364.63,550.1ZM218.53,276.63a106.58,106.58,0,0,1,44.85,28c16.06,16.57,34.26,35.36,36.54,64.46,2.34,29.88,11.27,82.75,23.79,106.74,10.23,19.61,30.78,52.66,39,65.75V130c-9,0-18.93,1.32-20.48,3.65-1.31,2-2.94,10.56-4.67,19.67-2.21,11.62-5,26.08-8.83,37.6-6.65,19.76-7.15,23.56-7.18,23.81a1.92,1.92,0,0,1-.73,1.37c-6.93,5.39-67.88,52.71-73.31,54.51a39.93,39.93,0,0,1-5.75,1C235.8,272.4,225.59,273.8,218.53,276.63Z"/><path class="cls-2" d="M427.37,98.48h0a1.91,1.91,0,0,1-1.9-1.92c.07-28-2.81-51.58-7.34-59.94C407.5,17,381.92,3.82,364.7,3.82S321.9,17,311.28,36.62C307,44.51,304.2,65.74,304,92c0,1.38,0,2.77,0,4.16A1.9,1.9,0,0,1,302,98.11h0a1.91,1.91,0,0,1-1.91-1.9c0-1.41,0-2.81,0-4.21.19-21.06,2.34-47.15,7.78-57.2C319.56,13.3,346.45,0,364.7,0s45.14,13.3,56.78,34.8c5.84,10.78,7.85,39,7.8,61.77A1.92,1.92,0,0,1,427.37,98.48Z"/><path class="cls-2" d="M408,178.89a1.9,1.9,0,0,1-1.43-3.17,127.78,127.78,0,0,0,8.95-11.41c3.22-4.63,6.05-16.56,8-33.58a1.91,1.91,0,1,1,3.79.42c-1.41,12.49-4.05,28.75-8.62,35.34a128.72,128.72,0,0,1-9.23,11.75A1.88,1.88,0,0,1,408,178.89Z"/><path class="cls-2" d="M321.38,178.84a1.91,1.91,0,0,1-1.43-.64,130.9,130.9,0,0,1-9.19-11.71c-5-7.17-7.55-22.8-8.83-34.65a1.91,1.91,0,1,1,3.8-.41c1.74,16.13,4.64,27.8,8.17,32.88a124.86,124.86,0,0,0,8.91,11.36,1.91,1.91,0,0,1-.17,2.7A1.88,1.88,0,0,1,321.38,178.84Z"/><path class="cls-2" d="M300.31,135.92a2.93,2.93,0,0,1-.53,0c-2.47-.33-4.56-2.87-5.48-6.63L288.18,104a12.34,12.34,0,0,1,2.39-9.94c.81-1,2.11-2.27,3.66-2.27,2.09,0,6.69,2,8,2.65a1.91,1.91,0,1,1-1.59,3.47,32.31,32.31,0,0,0-6.32-2.29c-1,.56-3.28,4.2-2.48,7.48L298,128.35c.61,2.52,1.78,3.68,2.27,3.75.22,0,.73-.32,1.32-1.4a1.91,1.91,0,1,1,3.34,1.86C303.39,135.36,301.54,135.92,300.31,135.92Z"/><path class="cls-2" d="M429.35,135.68c-1.44,0-3.84-.56-5.65-3.81A1.91,1.91,0,1,1,427,130c.46.82,1.21,1.8,2.2,1.85a1.78,1.78,0,0,0,1.27-.44l6.09-25.07c1.47-6-.71-10.07-1.72-10.7a33.14,33.14,0,0,0-6.3,2.29A1.91,1.91,0,0,1,427,94.47c1.36-.62,5.95-2.65,8-2.65a4.4,4.4,0,0,1,3.33,2c1.92,2.45,3.44,7.27,1.94,13.46l-6.13,25.23a4.82,4.82,0,0,1-4.11,3.15A4.63,4.63,0,0,1,429.35,135.68Z"/><path class="cls-2" d="M159.44,403.35a1.91,1.91,0,0,1-1.74-1.14,73.91,73.91,0,0,1-5.62-27c0-22.39,12.8-63.55,24.4-78.63,11.18-14.53,35.46-21.14,36.48-21.42a1.92,1.92,0,0,1,2.34,1.36,1.9,1.9,0,0,1-1.35,2.33c-.24.07-24.06,6.56-34.44,20.06s-23.58,52.77-23.61,76.3c0,10.57,3.34,20.4,4.71,24,7.22-1.58,37.73-8.72,51.72-19,15.88-11.65,37.3-29.25,49.18-47,4.86-7.24,7.95-17.9,8-18a1.91,1.91,0,0,1,3.67,1.05c-.13.46-3.28,11.33-8.47,19.08-12.2,18.19-34,36.11-50.11,47.94-16.51,12.11-53.2,19.65-54.75,20A2.58,2.58,0,0,1,159.44,403.35Z"/><path class="cls-2" d="M165.26,531.55a1.9,1.9,0,0,1-1.89-1.66c-.37-2.82-9-69.49.09-96.16,6.51-19,18.5-34.33,34.67-44.28C211.88,381,225.6,370.79,226.55,370a1.91,1.91,0,0,1,3.1,1c.42,1.89,10.26,46.35,8.44,65.7-1.42,15.08-8.2,25.57-17.57,40.08-2.9,4.49-6.19,9.59-9.61,15.28-14.31,23.85-43.55,38.66-44.79,39.28A2,2,0,0,1,165.26,531.55Zm61.29-156.78c-4.87,3.61-15.9,11.45-26.42,17.93-15.4,9.48-26.83,24.1-33.06,42.27-7.82,22.85-1.81,78.63-.25,91.67,7.3-4.08,29.41-17.52,40.82-36.53,3.44-5.75,6.75-10.87,9.67-15.39,9.08-14.06,15.64-24.22,17-38.37C235.79,420.38,228.74,385.15,226.55,374.77Z"/><path class="cls-2" d="M274.44,426.54H274c-15.06-.28-41.4-26.45-42.52-27.56a1.91,1.91,0,0,1,2.7-2.7c.27.26,26.36,26.19,39.89,26.44h.39c13.42,0,27.63-12.88,27.78-13a1.91,1.91,0,0,1,2.58,2.82C304.17,413.11,289.33,426.54,274.44,426.54Z"/><path class="cls-2" d="M113.37,693.52a1.83,1.83,0,0,1-.85-.2l-43.3-21.46a1.9,1.9,0,0,1-1-2.29l19.54-60.83c.45-1.6,15.49-54.59,24.81-78.07,8.45-21.29,18.45-32.51,21-35.11.11-5.12.84-34.54,3.83-52.43,3.31-19.87,19.84-41.92,20.54-42.85a1.91,1.91,0,0,1,3.05,2.31c-.17.22-16.67,22.23-19.83,41.17-3.21,19.27-3.78,52.3-3.79,52.63a1.91,1.91,0,0,1-.59,1.35c-.11.11-11.41,11.17-20.61,34.34-9.34,23.54-24.55,77.19-24.7,77.73a.19.19,0,0,1,0,.07l-19,59.29,40,19.83c2.18-5.16,8.68-19.67,17.68-32.26,4.56-6.39,9.5-11.47,14.73-16.84,7.37-7.58,15-15.41,22.28-27.76,11.56-19.6,21.49-37.65,25.95-60,4.32-21.56,10.76-55.73,10.83-56.07a1.91,1.91,0,1,1,3.75.71c-.06.34-6.51,34.53-10.83,56.11-4.58,22.9-14.67,41.24-26.42,61.15-7.51,12.74-15.29,20.74-22.82,28.48-5.13,5.27-10,10.25-14.36,16.4-10.66,14.91-18,33.18-18,33.36a1.9,1.9,0,0,1-1.09,1.08A2,2,0,0,1,113.37,693.52Z"/><path class="cls-2" d="M95.45,684.64a1.9,1.9,0,0,1-1.66-2.85c.25-.44,24.82-43.46,35.58-65,4-8.08,7.83-14.79,11.18-20.7,5.89-10.42,10.54-18.65,14.15-29.65,6.07-18.44,8.41-38.7,8.43-38.9a1.91,1.91,0,0,1,3.8.43c0,.2-2.41,20.84-8.6,39.67-3.73,11.35-8.7,20.14-14.46,30.33-3.32,5.87-7.09,12.53-11.09,20.53C122,640.13,97.36,683.25,97.11,683.68A1.9,1.9,0,0,1,95.45,684.64Z"/><path class="cls-2" d="M72.52,670.85a2,2,0,0,1-.93-.24,1.91,1.91,0,0,1-.74-2.6c1-1.77,7.13-16.52,13.08-30.79,4.91-11.79,10-24,13.75-32.72,9-21,28.59-54.37,38.65-69,11.51-16.78,23.8-42.05,23.92-42.3a1.91,1.91,0,1,1,3.44,1.66c-.12.26-12.54,25.79-24.21,42.8-10,14.53-29.36,47.57-38.29,68.37-3.75,8.74-8.83,20.91-13.73,32.69-6.54,15.68-12.18,29.22-13.27,31.18A1.9,1.9,0,0,1,72.52,670.85Z"/><path class="cls-2" d="M117.25,527.68h-.16a1.92,1.92,0,0,1-1.75-2.06c.14-1.6,1.5-2.41,7.91-6a169.15,169.15,0,0,0,16.49-10.07l21-17.05a1.91,1.91,0,1,1,2.41,3l-21.08,17.1-.09.06A174.33,174.33,0,0,1,125.1,523a65.58,65.58,0,0,0-6.15,3.64A1.9,1.9,0,0,1,117.25,527.68Z"/><path class="cls-2" d="M135.49,495.91a1.91,1.91,0,0,1-.84-3.62c.16-.08,16.58-8.31,24.95-21.84a1.91,1.91,0,0,1,3.25,2c-9,14.49-25.8,22.91-26.51,23.26A1.86,1.86,0,0,1,135.49,495.91Z"/><path class="cls-2" d="M136.26,476.63a2,2,0,0,1-.48-.06,1.91,1.91,0,0,1-1.38-2.3c.13-.49,3.25-12.24,26.64-25.4a1.91,1.91,0,0,1,1.87,3.33c-21.71,12.22-24.78,22.9-24.8,23A1.93,1.93,0,0,1,136.26,476.63Z"/><path class="cls-3" d="M261.56,737.5c-4.37,16.36-9.82,32.18-6.55,49.1,20.73-1.64,42-1.1,62.74-.55,8.73,0,17.46-2.18,24.55-7.64,9.82-6.54,16.37-15.27,22.37-25.09C379.4,767.5,393,788.23,416,787.14c20.19-.54,40.37-4.91,60,1.64,2.18-7.09,3.28-15.28.55-21.82-7.09-20.74-15.28-46.38,1.09-63.83,5-5.46,11-7.93,17.51-9.19-6.14-22.29-11.33-39.6-11.33-39.6a1.45,1.45,0,0,1,0-.16c-20.94-14.11-36.26-33.92-54.78-51.44-1.63-1.09-4.91,3.82-7.09,5.46a33.64,33.64,0,0,1-4.91,2.18C406.13,618,396.31,624,388.13,633.84c-8.19,10.37-12,22.37-16.37,34.92a140,140,0,0,1-6.55,17.45c-2.18-7.63-7.45-13.77-8.54-20.32-1.09-7.64-5.52-17.71-10.43-24.26a55.65,55.65,0,0,0-10.49-12.15c-3.81-3.28-6.54-7.64-10.36-10.37-7.64-7.09-17.46-10.91-25.64-16.91a7.82,7.82,0,0,1-1.09,3.27c-2.73,2.73-6,4.37-8.19,7.09a123.69,123.69,0,0,1-36.55,34.92c-2.85,1.81-5.73,3.44-8.64,5,.24,1.22.39,1.9.39,1.9s-5.3,17.66-11.53,40.28C254.58,697.07,266.23,718.27,261.56,737.5Z"/><path class="cls-2" d="M299.47,603.2a1.9,1.9,0,0,1-1.66-1c-7.72-13.68-44.92-42.14-45.29-42.42a2,2,0,0,1-.65-.89c0-.14-4.82-14-9-28.76-3.72-13.12-6.3-30.86-8-42.6-.24-1.68-.46-3.2-.66-4.55-1.55-10.32-5.73-25.57-5.77-25.73a1.91,1.91,0,0,1,3.68-1c.18.63,4.29,15.63,5.86,26.17.21,1.36.43,2.89.67,4.57,1.69,11.64,4.25,29.23,7.9,42.11,3.7,13,7.86,25.32,8.78,28,4.23,3.26,33.6,26,43.87,40.22,3.82-8.3,8.52-18,12.39-25.88,2.82-5.77,5.25-10.76,6.73-14,3.94-8.53,25.48-38.72,26.4-40a1.91,1.91,0,0,1,3.1,2.22c-.22.31-22.25,31.18-26,39.38-1.5,3.25-3.94,8.25-6.77,14-4.36,8.93-9.78,20.06-13.78,28.94a1.9,1.9,0,0,1-1.65,1.12Z"/><path class="cls-2" d="M364.63,690.58a1.92,1.92,0,0,1-1.83-1.35c-.13-.42-12.92-42.14-23.74-55.33-9.87-12-33.09-26.47-39.11-30.1-3.3,4.3-13.78,17.77-20.91,25.35-8.58,9.13-31.39,25.42-32.36,26.11a1.91,1.91,0,0,1-3-1.34c-.15-1.39-3.75-34.2-2.89-48.78.53-9,3.82-23.06,5.2-28.69,1.19-4.79,2.43-9.35,3.5-12.84,1.84-6,2.42-6.41,2.93-6.8a2.06,2.06,0,0,1,1.67-.39,1.91,1.91,0,0,1,1.46,2.27,1.84,1.84,0,0,1-.66,1.08c-1.92,3.6-9.49,32.17-10.29,45.59-.68,11.62,1.63,36,2.54,44.87,6.38-4.66,22.49-16.64,29.13-23.7,8.38-8.91,21.56-26.22,21.69-26.39a1.91,1.91,0,0,1,2.48-.5c1.21.71,29.81,17.47,41.59,31.83,7.7,9.4,16,31.53,20.7,45.2V548.19a1.91,1.91,0,1,1,3.82,0V688.67a1.91,1.91,0,0,1-1.63,1.89ZM253.36,560.17Zm0,0h0Zm0,0Zm-.07,0h0Zm0,0Z"/><path class="cls-2" d="M254.92,790.14a1.93,1.93,0,0,1-.63-.1,1.89,1.89,0,0,1-1.15-1.11c-5.9-15.07.33-33.85,3.28-41.23,2.5-6.26,7.32-22.52-2.05-38.13-7.45-12.43-18.55-12.19-19-12.17a1.9,1.9,0,0,1-2-1.83,1.92,1.92,0,0,1,1.82-2c.57,0,13.79-.42,22.46,14,10.24,17.08,5,34.73,2.31,41.52-2.07,5.18-8.23,22.58-3.94,36.49,9.17-3.53,30.22-3.94,42.75-2.55,14.52,1.62,24.9,2.2,36.52-4.14s27.64-28.15,27.8-28.37a1.91,1.91,0,1,1,3.08,2.26c-.68.93-16.82,22.79-29.05,29.46-12.57,6.86-24,6.23-38.77,4.59-15.81-1.76-36.84-.26-42.47,3A1.85,1.85,0,0,1,254.92,790.14Z"/><path class="cls-2" d="M257.49,1424.27c-2,0-3.89,0-5.79-.09l-2.92-.07c-5.55-.1-11.93-3.84-18.11-7.45-5.52-3.24-11.23-6.58-14.85-6.23-6.8.66-25.4,1.1-30.53-.64a47.94,47.94,0,0,1-4.87-2.12c-4.23-2-9.48-4.5-14.36-4.32-5.06.19-10-3.25-10.73-7.5-.24-1.39-.44-6.1,7.1-8.5,17.55-5.59,48.9-30.26,51.41-37.29,1.18-3.31.6-4.8-.28-7a17.14,17.14,0,0,1-1.29-9.76,41.56,41.56,0,0,1,3.21-11.75,67.57,67.57,0,0,0,2.36-6.54c2.21-7.29-2.79-46.66-5.47-67.82l-.26-2c-.5-3.88-1.21-9.13-2-15.2-4.24-31.18-11.35-83.38-10-106.27,1.61-26.86,4.2-39.6,13.2-64.9,8.57-24.09,10.27-32.88,11.34-48.75.58-8.56-1.26-16.83-3.8-28.29-2-9.17-4.58-20.59-6.54-35.55-4-30.48-7-69.53-8.2-107.12-.9-27.84,8.58-70.85,14.85-99.31,1.47-6.67,2.74-12.43,3.74-17.33,5.41-26.53,18.94-68.84,19.07-69.27a1.91,1.91,0,0,1,3.64,1.17c-.13.42-13.6,42.54-19,68.86-1,4.93-2.28,10.71-3.75,17.4-6.23,28.27-15.64,71-14.76,98.36,1.21,37.47,4.18,76.38,8.17,106.74,1.94,14.8,4.45,26.12,6.47,35.22,2.62,11.77,4.51,20.27,3.89,29.38-1.1,16.27-2.83,25.25-11.55,49.77-8.85,24.89-11.4,37.42-13,63.85-1.35,22.52,5.73,74.48,10,105.52.83,6.09,1.54,11.34,2,15.23l.25,2.05c3.95,31,7.6,62,5.35,69.4A72.81,72.81,0,0,1,219,1323a37.81,37.81,0,0,0-2.95,10.84,13.42,13.42,0,0,0,1.05,7.84,11.83,11.83,0,0,1,.33,9.71c-3.13,8.74-35.84,33.91-53.86,39.64-1.48.48-4.9,1.84-4.48,4.21.36,2.11,3.43,4.46,6.82,4.34,5.81-.22,11.54,2.51,16.14,4.69a45.75,45.75,0,0,0,4.46,2c4,1.35,20.85,1.23,28.93.45,4.85-.46,10.83,3,17.15,6.73,5.75,3.37,11.7,6.85,16.25,6.93l2.94.07c10.69.26,21.75.53,25.91-7.19,4.34-8,1.51-33.31-.8-41.39-.59-2.07-1.31-4.29-2-6.44-2-6.11-3.84-11.87-3.43-15.65a19.74,19.74,0,0,1,1.34-5.16,19.83,19.83,0,0,0,1.48-6.84A22.37,22.37,0,0,0,273,1330a55.13,55.13,0,0,1-2.39-14.74c-.42-14.35,6.18-64.15,6.93-69.78,2.33-17.43,5.86-29.32,11.7-49,1.24-4.2,2.49-8.15,3.71-12,4.4-13.87,8.21-25.85,8.21-39.87,0-9.36-.61-25.11-1.14-39-.5-13.15-1-25.58-.88-30.78.11-6,2.22-10.57,4.45-15.37a52.7,52.7,0,0,0,4.87-14.11c.95-5.54.91-12,.85-19.57-.06-9.33-.14-19.9,1.69-31.68,2.67-17.18,7.75-43.11,16.82-69.07,2.47-7.1,4.86-13,7-18.24,4.83-12,8.65-21.51,11.14-38.15,3.58-24.05,10.55-95.16,10.62-95.88a1.9,1.9,0,0,1,1.69-1.71l6.15-.67a1.91,1.91,0,1,1,.41,3.8l-4.6.5c-1.05,10.58-7.19,72.37-10.5,94.52-2.55,17.09-6.44,26.77-11.37,39-2.19,5.44-4.45,11.07-6.9,18.07-9,25.7-14,51.38-16.64,68.41-1.78,11.47-1.71,21.88-1.65,31.07.06,7.7.1,14.36-.91,20.24a56.64,56.64,0,0,1-5.17,15.07c-2.14,4.62-4,8.6-4.09,13.84-.1,5.09.37,17.46.88,30.55.53,13.93,1.14,29.71,1.14,39.15,0,14.61-3.89,26.85-8.4,41-1.2,3.8-2.45,7.73-3.68,11.89-5.79,19.53-9.28,31.31-11.57,48.45-.75,5.6-7.32,55.11-6.9,69.16a51,51,0,0,0,2.25,13.82,25.72,25.72,0,0,1,1.38,8.89,23.49,23.49,0,0,1-1.71,8,15.85,15.85,0,0,0-1.12,4.24c-.33,3,1.5,8.6,3.26,14.05.71,2.18,1.44,4.44,2.05,6.57,2.16,7.59,5.7,34.59.49,44.25C276.67,1423.12,267.09,1424.27,257.49,1424.27Z"/><path class="cls-2" d="M242.67,1034.41h-.2c-1.31-.15-1.8-1.2-2.88-3.78-.66-1.58-1.57-3.9-2.69-6.87-1.87-5-4.39-11.93-7.47-20.63C224.18,988.33,219,973.35,219,973.2a1.39,1.39,0,0,1-.09-.35c-8.38-60.59-1.33-100.63,3.62-119.1a221.45,221.45,0,0,1,19.74-49.91,135.41,135.41,0,0,1,7.84-12.57c3.35-4.71,3.83-4.81,4.45-4.93a1.89,1.89,0,0,1,1.89.71,2,2,0,0,1,.19,2,1.81,1.81,0,0,1-.55.67c-1.45,1.71-18.57,22.84-29.87,65-4.87,18.18-11.8,57.58-3.55,117.4,6.41,18.67,16.49,47.34,20.19,56.4,5.51-9.41,8-16,11.61-25.62,1.32-3.52,2.82-7.51,4.66-12.13,4.1-10.32,8.86-24,13.07-37.59,9.1-29.36,16.73-167.53,16.81-168.92a1.91,1.91,0,1,1,3.81.21c-.31,5.7-7.73,140-17,169.84-4.24,13.66-9,27.47-13.18,37.87-1.82,4.59-3.31,8.56-4.63,12.06-4,10.76-6.71,17.87-13.68,29.21A2,2,0,0,1,242.67,1034.41Z"/><path class="cls-2" d="M289.54,1040a1.84,1.84,0,0,1-.47-.06,1.91,1.91,0,0,1-1.43-1.66c-4.51-43.1-14.5-86.81-14.6-87.25a1.91,1.91,0,1,1,3.72-.85c.1.42,9.35,40.92,14.11,82.51,13.3-20.3,17-34.28,25.18-65.23l.24-.92c8.5-32.14,15.21-57.53,11.48-85.26-3.63-27-18.26-88.89-20.73-94.06a1.91,1.91,0,0,1,1.51-3.22c1.59.11,2.06,1.59,2.9,4.29.59,1.89,1.35,4.6,2.26,8,1.8,6.85,4.05,16.12,6.34,26.1,5.53,24.11,9.83,45.92,11.5,58.34,3.84,28.48-3,54.19-11.57,86.74l-.24.91c-8.61,32.57-12.54,47.43-28.63,70.74A1.92,1.92,0,0,1,289.54,1040ZM308.3,787.76Zm0,0Zm0,0h0Zm0,0Zm0,0h0Zm0,0Zm0,0Z"/><path class="cls-2" d="M237,1362.25a1.91,1.91,0,0,1-1.59-3h0a75,75,0,0,0,10.19-30.78c.57-5.82,1.35-11.27,2.11-16.55,1.64-11.45,3.06-21.34,1.55-29.85a1.91,1.91,0,1,1,3.76-.66c1.61,9.11.16,19.27-1.53,31-.75,5.24-1.53,10.65-2.09,16.39a77.19,77.19,0,0,1-10.81,32.51A1.91,1.91,0,0,1,237,1362.25Z"/><path class="cls-2" d="M273.72,1349.81a1.89,1.89,0,0,1-1.47-.69c-2.28-2.76-9.27-22.63-9.44-39.68a239.24,239.24,0,0,1,1.67-30.46,1.91,1.91,0,0,1,3.79.51,233.86,233.86,0,0,0-1.64,29.91c.17,16.38,7,35.35,8.56,37.29a1.9,1.9,0,0,1-1.47,3.12Z"/><path class="cls-2" d="M319.66,216.5a1.91,1.91,0,0,1-1.91-1.9c-.07-12.48,1.53-37.39,1.55-37.64a1.91,1.91,0,0,1,3.81.25c0,.25-1.61,25-1.54,37.37a1.92,1.92,0,0,1-1.9,1.92Z"/><path class="cls-2" d="M679.12,809a7.94,7.94,0,0,1-2.43-.38c-3.21-1-6.3-4-8.48-8.14-1.28-2.45-2.44-4.47-3.57-6.41-1.22-2.13-2.38-4.13-3.65-6.6-2.5-4.9-3.42-7.65-4.93-14.7-1.17-5.5-3.36-13.34-4.48-17.26a85.08,85.08,0,0,0,1.13,12.22,99.63,99.63,0,0,0,3.34,14.46c.42,1.26.77,2.37,1.09,3.38.8,2.51,1.37,4.33,2.09,6,.12.27.25.57.39.87,1.77,4,4.21,9.56.58,11.54a6,6,0,0,1-4.85.39c-3.26-1.06-6.37-4.49-9-9.94-.91-1.9-1.79-3.64-2.65-5.32-2.61-5.13-4.86-9.55-5.77-14.65a118.81,118.81,0,0,0-4.48-16.71c-.79-2.35-2.15-5.44-3.87-9.35-1.33-3-3-6.8-4.82-11.24-.58-1.38-1.16-2.78-1.74-4.18-3.83-9.13-7.43-17.76-7.43-22.17,0-2-.46-6.17-.87-9.86-1-9.38-1-10,.06-10.88a2,2,0,0,1,1.05-.44c2.81-.94,27.45-12.69,42.6-20a1.87,1.87,0,0,1,1-.19c2.7.21,4.51,1.57,8.37,4.6,1.31,1,6.23,3.06,11,5,8,3.28,17,7,20.15,10.18a60.29,60.29,0,0,1,6.72,9,57.23,57.23,0,0,0,6.26,8.39c2.28,2.32,5.41,4,8.18,5.49s5.43,2.91,6.69,4.81a4.77,4.77,0,0,1-.14,5.5c-1.64,2.33-5.91,4.48-12.59,2.88a33.38,33.38,0,0,0-6.65-.8c-3.86-.17-7.19-.32-11-5-3.29-4.1-5.5-7-6.63-8.51-.34.16-.73.35-1.14.59,1,1.61,2.94,4.54,4.6,7s3.43,5.12,5,7.58c4.22,6.56,8.36,14.78,12.74,23.48l1.51,3A74.23,74.23,0,0,0,719.73,764c1.11,1.54,2.37,3.27,3.83,5.39,6.12,8.85,7.34,15.24,3.53,18.5a6.67,6.67,0,0,1-5.16,1.76c-3-.34-6.16-2.87-10.17-8.23-5.7-7.6-9.37-12.59-13.09-19.25-1.64-2.94-4.86-8.14-7.93-13,1.87,6.12,3.91,12.64,4.92,15.31a77.18,77.18,0,0,0,8.59,16.18c.83,1.27,1.72,2.51,2.57,3.7,3.49,4.87,6.79,9.47,4.32,14.07a7.55,7.55,0,0,1-6,4,12,12,0,0,1-10-4.17c-3.92-4.57-10.82-16.27-14.56-23.9s-6.07-12.57-9.08-19.6a38.81,38.81,0,0,0-3.83-7.13l-.09.08c.73,2.46,2.34,7.88,3.11,10.68.4,1.46.87,3.63,1.42,6.15.82,3.79,1.85,8.51,3,12.3a108.16,108.16,0,0,0,6,15.8c.36.74.85,1.59,1.37,2.5,1.83,3.2,3.91,6.82,3,9.89a5.09,5.09,0,0,1-2.64,3.1A7.79,7.79,0,0,1,679.12,809Zm-26.41-58.37a1.9,1.9,0,0,1,.9.22,1.92,1.92,0,0,1,.93,1.14c.15.5,3.61,12.27,5.26,20,1.43,6.73,2.25,9.18,4.59,13.76,1.23,2.39,2.36,4.35,3.56,6.43s2.33,4,3.65,6.56c1.66,3.18,4,5.58,6.23,6.26a4,4,0,0,0,3.19-.28,1.27,1.27,0,0,0,.75-.8c.44-1.51-1.36-4.64-2.67-6.92-.55-1-1.07-1.88-1.48-2.73a111.09,111.09,0,0,1-6.25-16.38c-1.17-3.93-2.21-8.73-3-12.58-.54-2.46-1-4.59-1.38-5.95-1-3.57-3.43-11.77-3.45-11.85a1.9,1.9,0,0,1,.66-2.06l2.6-2a1.91,1.91,0,0,1,2.48.12c.27.26,2.74,2.72,5.72,9.67s5.27,11.8,9,19.42c4,8.22,10.71,19.23,14,23.09a8.12,8.12,0,0,0,6.7,2.86,3.83,3.83,0,0,0,3.1-2c1.28-2.39-.71-5.37-4.06-10-.88-1.23-1.79-2.5-2.67-3.84a80.82,80.82,0,0,1-8.95-16.91c-2.19-5.73-8.67-27.77-8.94-28.7a1.91,1.91,0,0,1,3.43-1.58c.48.74,11.69,18.08,15.41,24.75,3.61,6.46,7,11.13,12.81,18.82,3.2,4.26,5.74,6.52,7.55,6.72a2.81,2.81,0,0,0,2.25-.87c1.94-1.66.3-6.93-4.19-13.41-1.44-2.09-2.69-3.81-3.79-5.33a77.79,77.79,0,0,1-7.5-11.91l-1.51-3c-4.34-8.61-8.43-16.74-12.55-23.13-1.56-2.44-3.37-5.14-5-7.53-6-8.86-6.16-9.25-5.62-10.55a2.08,2.08,0,0,1,.65-.82h0a16.76,16.76,0,0,1,4.81-2.49,1.91,1.91,0,0,1,2.09.72s2.55,3.52,7.38,9.53c2.71,3.36,4.53,3.44,8.17,3.6a37.3,37.3,0,0,1,7.37.91c4.48,1.07,7.58,0,8.57-1.37a1,1,0,0,0,.08-1.2c-.73-1.09-3-2.28-5.3-3.55-3-1.61-6.43-3.44-9.11-6.18a60.2,60.2,0,0,1-6.72-9,57.88,57.88,0,0,0-6.26-8.4c-2.56-2.61-11.6-6.33-18.87-9.32-6.31-2.6-10.26-4.26-11.9-5.55-3.15-2.48-4.5-3.46-5.84-3.73-2.25,1.09-11.53,5.56-20.79,10-13.16,6.26-18.58,8.75-21,9.68.08,1.65.45,5,.73,7.58.44,4,.9,8.11.9,10.29,0,3.65,3.62,12.32,7.13,20.7.58,1.4,1.17,2.8,1.75,4.19,1.81,4.4,3.39,8,4.79,11.16,1.76,4,3.15,7.16,4,9.67a123.26,123.26,0,0,1,4.62,17.26c.81,4.54,2.84,8.53,5.41,13.59.87,1.7,1.77,3.46,2.7,5.4,3,6.18,5.67,7.62,6.7,8a2.28,2.28,0,0,0,1.73,0c.31-1.18-1.45-5.18-2.13-6.71q-.21-.47-.39-.9a64.54,64.54,0,0,1-2.23-6.36c-.32-1-.67-2.1-1.08-3.35a102.46,102.46,0,0,1-3.47-15,83.88,83.88,0,0,1-1.19-15,1.9,1.9,0,0,1,1.34-1.77l3-.94A1.77,1.77,0,0,1,652.71,750.63Zm33.57-39.81h0Zm-69.55-17.51a3.53,3.53,0,0,1-.68.13A1.79,1.79,0,0,0,616.73,693.31Zm-.08-3.59Z"/><path class="cls-2" d="M364.63,550.1a1.59,1.59,0,0,1-.53-.08,1.9,1.9,0,0,1-1.38-1.83V128.11a1.91,1.91,0,0,1,1.87-1.91c3.63-.07,21.94-.17,25.61,5.33,1.65,2.48,3,9.28,5.24,21.08,2.19,11.5,4.91,25.82,8.7,37.09,5.38,16,6.84,21.81,7.23,23.85,25.94,20.15,67.8,52.1,71.57,53.44.59.19,2.77.49,5.07.81,8.08,1.11,21.59,3,28.83,7.65a1.91,1.91,0,0,1-.49,3.43c-13.2,3.91-30.54,10.67-47.73,28.41-15.61,16.12-33.3,34.38-35.47,62.11-2.37,30.2-11.45,83.73-24.22,108.21-13,24.88-42.39,71.14-42.69,71.61A1.91,1.91,0,0,1,364.63,550.1ZM366.54,130V541.59c8.22-13.09,28.77-46.14,39-65.75,12.52-24,21.46-76.86,23.8-106.74,2.28-29.1,20.48-47.89,36.54-64.46a106.53,106.53,0,0,1,44.85-28c-7.06-2.83-17.27-4.23-23.24-5.05a39.93,39.93,0,0,1-5.75-1c-5.43-1.8-66.38-49.12-73.31-54.51a1.9,1.9,0,0,1-.73-1.37c0-.24-.52-4-7.18-23.81-3.88-11.52-6.62-26-8.83-37.6-1.73-9.11-3.36-17.71-4.67-19.67C385.47,131.32,375.55,130,366.54,130Z"/><path class="cls-2" d="M569.81,403.35a2.58,2.58,0,0,1-.38,0c-1.55-.32-38.24-7.86-54.76-20-16.12-11.83-37.9-29.75-50.1-47.94-5.19-7.75-8.34-18.62-8.47-19.08a1.91,1.91,0,0,1,3.67-1.05c0,.1,3.12,10.76,8,18,11.89,17.74,33.31,35.34,49.19,47,14,10.25,44.5,17.39,51.71,19a70.92,70.92,0,0,0,4.72-24c0-23.53-13.32-62.93-23.61-76.3s-34.2-20-34.44-20.06a1.91,1.91,0,0,1,1-3.69c1,.28,25.31,6.89,36.49,21.42,11.6,15.08,24.37,56.24,24.4,78.63a74.14,74.14,0,0,1-5.62,27A1.91,1.91,0,0,1,569.81,403.35Z"/><path class="cls-2" d="M564,531.55a2,2,0,0,1-.85-.2c-1.24-.62-30.49-15.43-44.79-39.28-3.42-5.69-6.71-10.79-9.61-15.28-9.37-14.51-16.15-25-17.57-40.08-1.83-19.35,8-63.81,8.44-65.7a1.91,1.91,0,0,1,3.1-1c1,.81,14.67,11,28.42,19.47,16.17,9.95,28.16,25.26,34.67,44.28,9.13,26.67.46,93.34.09,96.16a1.93,1.93,0,0,1-1,1.44A1.9,1.9,0,0,1,564,531.55ZM502.7,374.77c-2.18,10.38-9.23,45.61-7.73,61.58,1.34,14.15,7.9,24.31,17,38.37,2.92,4.52,6.22,9.64,9.67,15.39,11.42,19,33.52,32.45,40.82,36.53,1.56-13,7.57-68.83-.25-91.67-6.23-18.17-17.66-32.79-33.06-42.27C518.61,386.22,507.58,378.38,502.7,374.77Z"/><path class="cls-2" d="M454.82,426.54c-14.89,0-29.73-13.43-30.36-14a1.91,1.91,0,0,1,2.58-2.82c.14.13,14.38,13,27.78,13h.39c13.52-.25,39.62-26.18,39.88-26.44a1.91,1.91,0,0,1,2.7,2.7c-1.11,1.11-27.45,27.28-42.51,27.56Z"/><path class="cls-2" d="M615.89,693.52a2.09,2.09,0,0,1-.69-.12,2,2,0,0,1-1.09-1.08c-.07-.18-7.38-18.46-18-33.36-4.39-6.15-9.23-11.13-14.36-16.4-7.53-7.74-15.31-15.74-22.83-28.48-11.74-19.91-21.83-38.25-26.41-61.15-4.32-21.58-10.77-55.77-10.83-56.11a1.91,1.91,0,1,1,3.75-.71c.06.34,6.51,34.51,10.82,56.07,4.47,22.31,14.4,40.36,26,60,7.28,12.35,14.91,20.18,22.28,27.76,5.23,5.37,10.17,10.45,14.73,16.84,9,12.59,15.5,27.1,17.68,32.26l40-19.83-19-59.29a.19.19,0,0,1,0-.07c-.16-.54-15.36-54.19-24.7-77.73-9.2-23.17-20.5-34.23-20.62-34.34a1.94,1.94,0,0,1-.58-1.35c0-.33-.58-33.36-3.79-52.63-3.16-19-19.66-40.95-19.83-41.17a1.91,1.91,0,0,1,3.05-2.31c.7.93,17.23,23,20.54,42.85,3,17.89,3.72,47.31,3.83,52.43,2.5,2.6,12.49,13.82,20.94,35.11,9.32,23.48,24.37,76.47,24.82,78.07L661,669.57a1.9,1.9,0,0,1-1,2.29l-43.3,21.46A1.83,1.83,0,0,1,615.89,693.52Z"/><path class="cls-2" d="M633.81,684.64a1.9,1.9,0,0,1-1.66-1c-.25-.43-24.87-43.55-35.68-65.17-4-8-7.76-14.66-11.08-20.53-5.76-10.19-10.73-19-14.46-30.33-6.19-18.83-8.57-39.47-8.6-39.67a1.91,1.91,0,0,1,3.8-.43c0,.2,2.36,20.46,8.43,38.9,3.61,11,8.26,19.23,14.15,29.65,3.35,5.91,7.14,12.62,11.18,20.7,10.76,21.53,35.33,64.55,35.58,65a1.9,1.9,0,0,1-1.66,2.85Z"/><path class="cls-2" d="M656.74,670.85a1.9,1.9,0,0,1-1.67-1c-1.09-2-6.73-15.51-13.27-31.19-4.91-11.77-10-23.95-13.73-32.68-8.93-20.8-28.32-53.84-38.29-68.37-11.67-17-24.09-42.54-24.21-42.8a1.91,1.91,0,1,1,3.43-1.66c.13.25,12.43,25.53,23.93,42.3,10.06,14.66,29.62,48,38.65,69,3.76,8.75,8.83,20.93,13.74,32.71,5.95,14.27,12.1,29,13.09,30.8a1.91,1.91,0,0,1-.74,2.6A2,2,0,0,1,656.74,670.85Z"/><path class="cls-2" d="M612,527.68a1.92,1.92,0,0,1-1.71-1.06,63,63,0,0,0-6.15-3.64,174.28,174.28,0,0,1-16.9-10.34l-.09-.06-21.08-17.1a1.91,1.91,0,1,1,2.41-3l21,17.05A169.15,169.15,0,0,0,606,519.64c6.41,3.56,7.77,4.37,7.91,6a1.92,1.92,0,0,1-1.75,2.06Z"/><path class="cls-2" d="M593.77,495.91a1.83,1.83,0,0,1-.85-.2c-.71-.35-17.55-8.77-26.51-23.26a1.91,1.91,0,0,1,3.25-2c8.37,13.53,24.79,21.76,25,21.84a1.91,1.91,0,0,1-.84,3.62Z"/><path class="cls-2" d="M593,476.64a1.92,1.92,0,0,1-1.85-1.44c0-.19-3.17-10.83-24.8-23a1.91,1.91,0,1,1,1.87-3.33c23.38,13.16,26.51,24.91,26.64,25.4a1.92,1.92,0,0,1-1.4,2.31A1.88,1.88,0,0,1,593,476.64Z"/><path class="cls-2" d="M429.79,603.2h-.09a1.9,1.9,0,0,1-1.65-1.12c-4-8.88-9.43-20-13.79-28.94-2.82-5.8-5.26-10.8-6.76-14-3.79-8.2-25.81-39.07-26-39.38a1.91,1.91,0,0,1,3.11-2.22c.92,1.28,22.46,31.47,26.39,40,1.49,3.21,3.92,8.2,6.74,14,3.86,7.93,8.57,17.58,12.39,25.88,10.27-14.17,39.64-37,43.87-40.22.92-2.68,5.08-15,8.77-28,3.66-12.88,6.22-30.48,7.91-42.13.24-1.67.46-3.2.67-4.55,1.57-10.54,5.68-25.54,5.86-26.17a1.91,1.91,0,0,1,3.68,1c0,.16-4.23,15.42-5.77,25.73-.2,1.34-.42,2.87-.66,4.53-1.71,11.75-4.29,29.5-8,42.62-4.2,14.8-9,28.62-9,28.76a2,2,0,0,1-.65.89c-.38.28-37.57,28.74-45.29,42.42A1.92,1.92,0,0,1,429.79,603.2Z"/><path class="cls-2" d="M364.63,690.58l-.28,0a1.91,1.91,0,0,1-1.63-1.89V548.19a1.91,1.91,0,1,1,3.82,0V676.67c4.68-13.67,13-35.8,20.7-45.2,11.78-14.36,40.37-31.12,41.59-31.83a1.91,1.91,0,0,1,2.48.5c.13.17,13.31,17.48,21.69,26.39,6.64,7.06,22.75,19,29.13,23.7.9-8.83,3.22-33.25,2.54-44.87-.8-13.42-8.37-42-10.29-45.59a1.9,1.9,0,0,1,.8-3.35,2,2,0,0,1,1.66.39c.52.39,1.09.83,2.94,6.8,1.07,3.49,2.31,8,3.49,12.84,1.39,5.63,4.68,19.7,5.21,28.69.86,14.58-2.74,47.39-2.9,48.78a1.9,1.9,0,0,1-3,1.34c-1-.69-23.78-17-32.36-26.11-7.13-7.58-17.61-21-20.91-25.35-6,3.63-29.24,18.05-39.12,30.1-10.81,13.19-23.61,54.91-23.73,55.33A1.92,1.92,0,0,1,364.63,690.58Zm111.25-130.4Zm0,0h0Zm.08,0-.08,0Zm0,0h0Z"/><path class="cls-2" d="M474.34,790.14a1.82,1.82,0,0,1-1-.26c-5.63-3.28-26.67-4.78-42.47-3-14.77,1.64-26.2,2.27-38.77-4.59-12.24-6.67-28.37-28.53-29.05-29.46a1.91,1.91,0,0,1,3.08-2.26c.16.22,16.31,22.1,27.8,28.37s22,5.76,36.52,4.14c12.53-1.39,33.58-1,42.74,2.55,4.3-13.91-1.86-31.31-3.94-36.49-2.71-6.79-7.93-24.44,2.32-41.52,8.67-14.44,21.89-14,22.45-14a1.91,1.91,0,0,1-.08,3.82h-.07c-.48,0-11.57-.26-19,12.17-9.37,15.61-4.56,31.87-2.05,38.13,3,7.38,9.18,26.16,3.28,41.23A1.89,1.89,0,0,1,475,790,2,2,0,0,1,474.34,790.14Z"/><path class="cls-2" d="M471.77,1424.27c-9.6,0-19.19-1.15-23.58-9.29-5.21-9.66-1.68-36.66.49-44.25.61-2.13,1.34-4.39,2.05-6.57,1.76-5.45,3.59-11.09,3.26-14.05a16.23,16.23,0,0,0-1.12-4.24,23.49,23.49,0,0,1-1.71-8,25.48,25.48,0,0,1,1.38-8.89,51,51,0,0,0,2.25-13.82c.42-14-6.15-63.56-6.9-69.16-2.29-17.14-5.78-28.92-11.57-48.45-1.23-4.16-2.48-8.08-3.68-11.88-4.51-14.18-8.4-26.42-8.4-41,0-9.44.61-25.22,1.14-39.15.5-13.09,1-25.46.88-30.55-.1-5.24-1.95-9.22-4.09-13.84a56.5,56.5,0,0,1-5.18-15.07c-1-5.88-1-12.54-.9-20.24.06-9.19.13-19.6-1.65-31.07-2.64-17-7.67-42.71-16.64-68.41-2.45-7-4.71-12.63-6.9-18.07-4.93-12.25-8.82-21.92-11.37-39-3.31-22.15-9.45-83.94-10.5-94.52l-4.61-.5a1.91,1.91,0,0,1,.41-3.8l6.16.67a1.91,1.91,0,0,1,1.69,1.71c.07.72,7,71.83,10.62,95.88,2.49,16.64,6.31,26.13,11.14,38.15,2.1,5.22,4.49,11.14,7,18.24,9.07,26,14.15,51.89,16.82,69.07,1.82,11.78,1.75,22.35,1.69,31.68-.06,7.53-.1,14,.85,19.57a52.7,52.7,0,0,0,4.87,14.11c2.23,4.8,4.34,9.33,4.45,15.37.1,5.2-.38,17.63-.88,30.78-.54,13.89-1.14,29.64-1.14,39,0,14,3.81,26,8.21,39.87,1.22,3.82,2.47,7.76,3.71,12,5.84,19.7,9.36,31.59,11.7,49,.75,5.63,7.35,55.43,6.93,69.78a55.13,55.13,0,0,1-2.39,14.74,22.37,22.37,0,0,0-1.25,7.65,19.86,19.86,0,0,0,1.47,6.84,19.32,19.32,0,0,1,1.35,5.16c.41,3.78-1.45,9.54-3.43,15.65-.7,2.15-1.41,4.37-2,6.44-2.31,8.08-5.13,33.35-.8,41.39,4.17,7.72,15.23,7.45,25.92,7.19l2.94-.07c4.55-.08,10.5-3.56,16.25-6.93,6.32-3.7,12.29-7.2,17.14-6.73,8.09.78,25,.9,28.94-.45a45.75,45.75,0,0,0,4.46-2c4.6-2.18,10.31-4.92,16.14-4.69,3.39.13,6.45-2.23,6.82-4.34.42-2.37-3-3.73-4.49-4.21-18-5.73-50.73-30.9-53.85-39.64a11.83,11.83,0,0,1,.33-9.71,13.42,13.42,0,0,0,1.05-7.84,38.24,38.24,0,0,0-3-10.84,72.81,72.81,0,0,1-2.49-6.88c-2.26-7.44,1.4-38.35,5.34-69.38l.26-2.07c.5-3.89,1.21-9.14,2-15.23,4.23-31,11.31-83,10-105.52-1.58-26.43-4.13-39-13-63.85-8.72-24.52-10.45-33.5-11.55-49.77-.62-9.11,1.27-17.61,3.88-29.38,2-9.1,4.54-20.42,6.48-35.22,4-30.36,7-69.27,8.17-106.74.88-27.36-8.53-70.09-14.76-98.36-1.47-6.69-2.74-12.47-3.75-17.4-5.37-26.33-18.84-68.44-19-68.86a1.91,1.91,0,1,1,3.63-1.17c.14.43,13.67,42.74,19.08,69.27,1,4.9,2.27,10.66,3.74,17.33,6.27,28.46,15.75,71.47,14.85,99.31C522,876.62,519,915.67,515,946.15c-2,15-4.5,26.38-6.54,35.55-2.54,11.46-4.38,19.73-3.8,28.29,1.07,15.87,2.77,24.66,11.34,48.75,9,25.3,11.58,38,13.2,64.9,1.37,22.89-5.74,75.09-10,106.27-.83,6.07-1.55,11.32-2,15.2l-.26,2.06c-2.69,21.15-7.68,60.51-5.47,67.8a67.57,67.57,0,0,0,2.36,6.54,41.56,41.56,0,0,1,3.21,11.75,17.23,17.23,0,0,1-1.29,9.76c-.88,2.24-1.46,3.73-.28,7,2.51,7,33.86,31.7,51.41,37.29,7.54,2.4,7.34,7.11,7.09,8.5-.74,4.25-5.64,7.67-10.72,7.5-4.88-.19-10.13,2.31-14.36,4.32a47.94,47.94,0,0,1-4.87,2.12c-5.13,1.74-23.73,1.3-30.53.64-3.63-.35-9.33,3-14.85,6.23-6.18,3.61-12.57,7.35-18.11,7.45l-2.92.07C475.66,1424.22,473.71,1424.27,471.77,1424.27Z"/><path class="cls-2" d="M488.09,1030a2,2,0,0,1-1.66-.89c-5.5-8.49-8.28-15-13.34-26.72-1.18-2.75-2.49-5.8-4-9.24-.78-1.79-1.64-3.73-2.57-5.8-4.17-9.31-9.35-20.9-13.1-33-9.24-29.81-16.66-164.14-17-169.84a1.91,1.91,0,1,1,3.81-.21c.08,1.39,7.71,139.56,16.81,168.92,3.68,11.88,8.81,23.35,12.93,32.57.94,2.08,1.81,4,2.59,5.83,1.51,3.45,2.83,6.51,4,9.26,4.54,10.56,7.08,16.47,11.29,23.37,3.5-8.49,12.8-34.9,18.71-52.09,8.25-59.82,1.32-99.22-3.55-117.4-11.3-42.15-28.42-63.28-29.87-65a1.81,1.81,0,0,1-.55-.67,2,2,0,0,1,.19-2,1.89,1.89,0,0,1,1.89-.71c.62.12,1.1.22,4.45,4.93A135.41,135.41,0,0,1,487,803.84a221.45,221.45,0,0,1,19.74,49.91c4.95,18.47,12,58.51,3.62,119.1a2,2,0,0,1-.09.35c0,.14-4.81,14-9.68,27.71-2.86,8.05-5.21,14.48-7,19.1-1.05,2.76-1.89,4.91-2.52,6.38-1,2.37-1.51,3.42-2.8,3.58Z"/><path class="cls-2" d="M438.91,1040a1.89,1.89,0,0,1-1.57-.83c-14.91-21.59-18.64-35.8-26.08-64.1q-.83-3.19-1.74-6.64l-.25-.92c-8.6-32.55-15.4-58.25-11.56-86.73,1.67-12.42,6-34.23,11.5-58.34,2.29-10,4.54-19.25,6.34-26.1.91-3.45,1.67-6.16,2.26-8,.84-2.7,1.31-4.18,2.9-4.29a1.91,1.91,0,0,1,1.51,3.22c-2.47,5.17-17.1,67.1-20.73,94.06-3.73,27.73,3,53.12,11.48,85.26l.24.92q.92,3.45,1.75,6.64c7,26.63,10.47,39.85,22.5,58.38,3.86-43.05,15-82,15.06-82.4a1.91,1.91,0,1,1,3.67,1.05c-.12.42-12.05,42.34-15.38,87.1a1.91,1.91,0,0,1-1.4,1.7A2.08,2.08,0,0,1,438.91,1040ZM421,787.76Zm0,0h0Zm0,0h0Zm0,0Zm0,0h0Zm0,0Zm0,0Z"/><path class="cls-2" d="M497.24,1230.62a16.33,16.33,0,0,1-3.47-.39c-10.2-2.22-22.83-17.29-27.72-52.93-1.38-10-13.27-98.59-7.88-126,1.41-7.17,7.4-21.42,9.2-25.62,2-4.68,4-9,5.61-12.23,2.8-5.58,3.56-6.17,4.77-6.25a2,2,0,0,1,2,1.18c1.37,2.56,34.95,65,47.52,94.42a1.91,1.91,0,1,1-3.51,1.5c-11.26-26.37-39.52-79.44-46.05-91.64-3.93,7.21-14,30.46-15.77,39.37-5.28,26.83,6.54,114.82,7.91,124.77,4.63,33.72,16.23,47.86,24.75,49.71,5.11,1.12,11.28.52,19.65-20.82,6.06-15.45,8.84-41.06,9.89-50.7.2-1.85.34-3.18.45-3.9a1.91,1.91,0,0,1,3.78.55c-.1.65-.24,2-.44,3.76-1.06,9.78-3.88,35.76-10.13,51.68C511.3,1223.6,505.31,1230.62,497.24,1230.62Z"/><path class="cls-2" d="M461.81,1242.4a11.13,11.13,0,0,1-5-1.23c-9.51-4.78-14.43-22.49-15-24.7,0,0,0,0,0-.07a1.91,1.91,0,1,1,3.7-.93c.19.74,4.82,18.16,13,22.29a7.26,7.26,0,0,0,6.29.2c.13,0,3.21-1.53,4.2-22.38.53-11,.2-21.74.2-21.85a1.91,1.91,0,1,1,3.81-.12c0,.11.34,11-.19,22.13-1,20.87-4,24.73-6.58,25.76A11.81,11.81,0,0,1,461.81,1242.4Z"/><path class="cls-2" d="M427.49,1102.25h-.2a1.91,1.91,0,0,1-1.7-2.1c.44-4.09,2.91-11.83,4.89-18,.59-1.85,1.1-3.45,1.48-4.72,1.3-4.34,6-47.92,7.72-64.34a1.91,1.91,0,0,1,3.65-.58c.57,1.31,14.11,32,17.2,44.24a1.91,1.91,0,0,1-3.7.94c-2.16-8.51-9.86-27-14.11-37-1.71,16.07-5.77,53.36-7.1,57.8-.39,1.3-.91,2.92-1.5,4.79-1.83,5.73-4.33,13.58-4.73,17.28A1.92,1.92,0,0,1,427.49,1102.25Z"/><path class="cls-2" d="M232.06,1230.62c-8.07,0-14.05-7-20.54-23.56-6.25-15.92-9.07-41.9-10.13-51.68-.2-1.8-.34-3.11-.43-3.76a1.9,1.9,0,0,1,3.77-.55c.11.72.25,2,.45,3.9,1,9.64,3.83,35.25,9.89,50.7,8.38,21.34,14.53,21.93,19.65,20.82,8.52-1.85,20.12-16,24.75-49.71,2-14.86,2.09-25.91,2.15-36.59a277.09,277.09,0,0,1,1.23-29c6.09-58.91-5.78-78.63-11.49-88.11-.22-.36-.42-.69-.61-1-2.62,5.2-7.45,13.36-13.23,23.13-10.86,18.36-24.38,41.22-32,59a1.91,1.91,0,1,1-3.51-1.5c7.71-18,21.3-41,32.23-59.48,7-11.88,13.09-22.14,14.58-26.18a1.91,1.91,0,0,1,3.56,0,33.27,33.27,0,0,0,2.25,4.09c5.92,9.83,18.24,30.3,12,90.47a277.42,277.42,0,0,0-1.22,28.64c-.05,10.81-.1,22-2.18,37.09-4.89,35.64-17.52,50.71-27.72,52.93A16.33,16.33,0,0,1,232.06,1230.62Z"/><path class="cls-2" d="M267.49,1242.42a11.65,11.65,0,0,1-4.43-.92c-2.54-1-5.58-4.91-6.57-25.77-.53-11.11-.21-22-.2-22.12a1.91,1.91,0,1,1,3.81.12c0,.11-.32,10.88.2,21.84,1,20.85,4.07,22.34,4.2,22.39a7.15,7.15,0,0,0,6.29-.2c8.54-4.35,13.24-23.15,13.29-23.34a1.91,1.91,0,1,1,3.71.91c-.21.84-5.17,20.69-15.26,25.83A11,11,0,0,1,267.49,1242.42Z"/><path class="cls-2" d="M301.81,1102.25a1.92,1.92,0,0,1-1.9-1.71c-.4-3.7-2.9-11.55-4.73-17.28-.59-1.87-1.11-3.49-1.5-4.79-1.39-4.65-6.25-42.5-7.93-55.83-4.93,6.66-15,22-18.26,40.26a1.91,1.91,0,1,1-3.76-.67c4.54-25.41,21.19-44.81,21.9-45.62a1.91,1.91,0,0,1,3.34,1c1.88,15.15,7.07,55.41,8.37,59.76.38,1.27.89,2.87,1.48,4.72,2,6.21,4.45,14,4.89,18a1.91,1.91,0,0,1-1.7,2.1Z"/><path class="cls-2" d="M492.3,1362.25a1.9,1.9,0,0,1-1.59-.85,77.19,77.19,0,0,1-10.81-32.51c-.57-5.74-1.34-11.16-2.09-16.39-1.69-11.78-3.14-21.94-1.53-31a1.91,1.91,0,1,1,3.76.66c-1.51,8.51-.09,18.4,1.55,29.85.76,5.27,1.54,10.73,2.11,16.55a74.88,74.88,0,0,0,10.19,30.78,1.9,1.9,0,0,1-.54,2.64A1.85,1.85,0,0,1,492.3,1362.25Z"/><path class="cls-2" d="M455.54,1349.81a1.93,1.93,0,0,1-1.22-.43,1.91,1.91,0,0,1-.25-2.69c1.6-1.94,8.39-20.91,8.56-37.29a233.86,233.86,0,0,0-1.64-29.91,1.91,1.91,0,1,1,3.79-.51,240.42,240.42,0,0,1,1.66,30.46c-.17,17-7.15,36.92-9.43,39.68A1.89,1.89,0,0,1,455.54,1349.81Z"/><path class="cls-2" d="M409.6,216.5h0a1.92,1.92,0,0,1-1.91-1.91c0-13.16-1.53-37.14-1.54-37.38A1.91,1.91,0,1,1,410,177c0,.24,1.55,24.34,1.55,37.62A1.9,1.9,0,0,1,409.6,216.5Z"/><path class="cls-2" d="M364.63,753.59a1.9,1.9,0,0,1-1.91-1.91V677.27a1.91,1.91,0,0,1,3.82,0v74.41A1.91,1.91,0,0,1,364.63,753.59Z"/></g></g></g></svg>